<svg width="87" height="87
" viewBox="0 0 94 94" fill="none" xmlns="http://www.w3.org/2000/svg">
  <g clip-path="url(#clip0_290_98)">
    <path d="M14.5688 0C15.7306 1.12363 16.8728 2.2718 18.074 3.35373C18.3614 3.61378 18.8698 3.80024 19.2481 3.75853C22.6919 3.38562 26.0154 3.89837 28.8058 5.91747C32.4953 8.58426 36.4672 10.7211 40.4416 12.885C42.3772 13.9375 43.1903 16.1111 42.5516 18.1523C41.9449 20.0954 40.2402 21.3417 38.2088 21.3343C37.8747 21.3343 37.5382 21.3343 37.0273 21.3343C37.2803 21.6115 37.462 21.8201 37.6561 22.0188C40.6135 25.0364 43.5735 28.0516 46.5334 31.0667C49.2157 33.7973 48.6851 36.9867 45.2659 38.7555C45.0964 38.8414 44.9171 39.0843 44.9048 39.2658C44.5658 43.8487 41.8614 45.4802 37.7789 43.5445C35.6591 46.2407 34.1165 46.6897 31.3899 45.5096C30.6505 46.2162 30.0389 47.011 29.243 47.5189C27.6096 48.5616 25.475 48.3089 24.0749 46.908C20.2036 43.0293 16.3766 39.1039 12.5472 35.1835C11.9134 34.5358 11.9429 33.6845 12.5324 33.1472C13.1097 32.6222 13.9178 32.6737 14.5761 33.3434C18.1649 36.9842 21.7438 40.6372 25.3276 44.2854C25.5634 44.5258 25.7919 44.7785 26.0547 44.9846C26.7425 45.5243 27.6169 45.4753 28.231 44.8938C28.8328 44.3197 28.9213 43.4267 28.4177 42.725C28.2409 42.4773 28.0198 42.2614 27.8061 42.043C24.8904 39.0696 21.9747 36.0986 19.059 33.1251C18.8674 32.9288 18.6561 32.7399 18.5014 32.5167C18.0838 31.9131 18.0912 31.2949 18.6045 30.7601C19.1499 30.1958 19.7934 30.1615 20.4247 30.6276C20.6925 30.8263 20.9184 31.0839 21.1543 31.3243C24.7577 34.9945 28.3588 38.6697 31.9622 42.3399C32.2177 42.6024 32.4707 42.887 32.7753 43.0783C33.4827 43.5199 34.1975 43.4488 34.7944 42.8722C35.3889 42.2982 35.5068 41.5916 35.0867 40.8654C34.9074 40.5538 34.6274 40.2962 34.3719 40.0337C30.7734 36.3586 27.1699 32.6884 23.5689 29.0157C23.3748 28.8195 23.1758 28.6281 22.9965 28.4196C22.4438 27.767 22.4488 26.9696 22.9965 26.4446C23.5492 25.9172 24.3475 25.9196 24.9714 26.5256C25.9589 27.4849 26.9095 28.4834 27.8749 29.4672C31.5201 33.184 35.1629 36.9008 38.8106 40.6152C39.066 40.8752 39.324 41.1475 39.6261 41.3487C40.3065 41.8026 41.1834 41.6971 41.7164 41.1034C42.274 40.4851 42.333 39.7835 41.908 39.0769C41.7386 38.7948 41.4806 38.5617 41.2448 38.3213C36.7423 33.7286 32.2398 29.1409 27.7373 24.5506C27.5654 24.3765 27.3836 24.2072 27.2411 24.0109C26.7719 23.3779 26.799 22.7376 27.3615 22.193C27.9264 21.6459 28.5921 21.6582 29.1915 22.1341C29.6213 22.4751 29.9824 22.8995 30.3681 23.2921C34.313 27.3131 38.253 31.3415 42.2077 35.3527C42.5221 35.6717 42.893 36.0102 43.3033 36.1427C44.0746 36.3954 44.7746 36.1452 45.2045 35.4239C45.6564 34.6658 45.4943 33.947 44.8974 33.3312C43.4236 31.8175 41.9424 30.3111 40.4612 28.8048C37.6512 25.9417 34.846 23.0762 32.0286 20.2205C31.4832 19.6685 31.0337 19.0993 31.4489 18.2848C31.8885 17.4212 32.6426 17.4678 33.4361 17.6396C34.7527 17.9217 36.0717 18.1916 37.3883 18.4663C38.6828 18.7387 39.5843 18.3584 39.9061 17.4065C40.2303 16.4448 39.8275 15.6622 38.6828 15.0488C37.8207 14.5852 36.9634 14.1141 36.0914 13.6676C33.4459 12.3134 30.8765 10.8512 28.5258 9.01114C25.6469 6.75897 22.3554 5.97881 18.7544 6.65103C17.934 6.80313 17.3444 6.60932 16.7868 6.01806C15.738 4.90424 14.6424 3.83213 13.5715 2.73794C12.4882 1.62902 12.5619 0.870938 13.8318 0.00245335C14.0775 0.00245335 14.3231 0.00245335 14.5663 0.00245335L14.5688 0Z" fill="#00CBA6"/>
    <path d="M78.7389 0C79.9793 0.954352 79.9941 1.62412 78.9133 2.76002C78.0069 3.71437 77.0636 4.36941 75.6488 4.53133C73.2415 4.80365 71.2101 6.01806 69.4784 7.71332C63.3743 13.6897 57.2703 19.6636 51.1687 25.6424C50.9501 25.8558 50.7216 26.0717 50.5595 26.3244C50.1075 27.031 50.1861 27.7253 50.7364 28.346C51.2596 28.9348 52.1537 29.0525 52.8292 28.6134C53.1092 28.4318 53.3475 28.1865 53.5882 27.951C56.6095 24.9972 59.6259 22.0409 62.6522 19.0919C62.9101 18.8393 63.1975 18.5645 63.5242 18.4443C64.1726 18.2063 64.7474 18.4222 65.1134 19.011C65.531 19.6857 65.3443 20.2965 64.8039 20.8265C63.055 22.5414 61.3061 24.2562 59.5571 25.9711C57.371 28.1129 55.1553 30.2301 53.0208 32.4234C52.6278 32.8258 52.3158 33.5642 52.3772 34.1015C52.5221 35.4092 54.1016 35.8753 55.1332 34.9553C56.1379 34.0598 57.0738 33.0858 58.0367 32.1438C60.9696 29.2733 63.9 26.4029 66.8329 23.5325C66.9631 23.4049 67.0908 23.27 67.2308 23.1498C67.8695 22.5978 68.685 22.5855 69.2106 23.1179C69.7363 23.6478 69.7461 24.4942 69.1541 25.0928C67.7982 26.4643 66.4104 27.8038 65.0324 29.1531C61.6622 32.4529 58.2921 35.7477 54.9245 39.0475C54.7279 39.2388 54.5241 39.4302 54.3619 39.651C53.8854 40.2962 53.9394 41.1868 54.47 41.7609C55.0153 42.3521 55.9758 42.4625 56.6464 41.9841C56.919 41.7903 57.1499 41.5376 57.3882 41.3021C61.9423 36.8493 66.4939 32.3965 71.048 27.9436C71.2666 27.7302 71.4754 27.4971 71.726 27.3278C72.34 26.9132 72.959 26.9598 73.4749 27.4848C73.9932 28.0123 74.0177 28.6355 73.6002 29.239C73.411 29.5113 73.1482 29.737 72.9075 29.9725C68.7955 34.0009 64.6836 38.0269 60.5692 42.0553C60.3284 42.2908 60.0754 42.5165 59.8568 42.7717C59.2624 43.4709 59.2698 44.3884 59.8568 45.0214C60.4734 45.6838 61.4559 45.7672 62.1658 45.1293C63.1213 44.2707 64.0179 43.3457 64.9439 42.4527C65.7717 41.6554 66.5848 41.572 67.1866 42.2074C67.7737 42.8281 67.6533 43.645 66.8427 44.4473C66.0812 45.2005 65.3149 45.9512 64.5436 46.6946C61.7237 49.4202 58.2798 48.694 56.7372 44.9797C54.8041 45.2446 53.0871 44.7736 51.9744 43.0317C50.8911 41.334 51.0532 39.6093 52.1758 37.8723C51.0066 37.2418 50.1051 36.3586 49.717 35.0583C49.3362 33.785 49.5426 32.5805 50.2303 31.3832C50.0756 31.2777 49.9429 31.1722 49.798 31.0864C47.123 29.4475 46.7006 26.1895 48.9383 23.9864C55.1799 17.8432 61.4043 11.6853 67.7368 5.63779C69.0534 4.37922 70.7975 3.55735 72.3818 2.59564C72.8657 2.30124 73.4626 2.09761 74.0251 2.051C75.6095 1.92097 76.8204 1.18006 77.8177 0.00490669H78.7364L78.7389 0Z" fill="#00CBA6"/>
    <path d="M94.0001 16.5282C93.9485 16.5552 93.892 16.5723 93.8478 16.6067C92.1284 17.853 91.7992 19.509 91.9417 21.5796C92.1333 24.3224 91.2907 26.9745 89.6401 29.1654C86.9946 32.681 84.9607 36.5328 82.8924 40.3821C81.5586 42.8648 78.6356 43.6205 76.3757 42.1338C75.0272 41.2456 74.3443 39.9724 74.3197 38.3531C74.3148 38.0219 74.3197 37.6883 74.3197 37.1338C73.4428 37.9876 72.6691 38.7383 71.8978 39.489C70.8342 40.5268 70.0579 40.6691 69.3972 39.9478C68.7561 39.2486 68.9182 38.5519 69.9671 37.5239C71.8265 35.7035 73.6909 33.8905 75.543 32.0652C76.0859 31.5304 76.6607 31.1673 77.4148 31.5917C78.1418 32.0014 78.2327 32.6344 78.0534 33.4096C77.7218 34.8375 77.4491 36.2776 77.1568 37.7153C76.9358 38.807 77.3288 39.6632 78.1983 39.9944C79.1244 40.3477 79.9817 39.9748 80.5466 38.9419C81.1484 37.8428 81.7551 36.7462 82.3127 35.625C83.5557 33.1275 85.027 30.7821 86.7317 28.5667C88.8737 25.7846 89.6425 22.6247 89.0702 19.1532C88.9154 18.2087 89.1562 17.4016 89.8636 16.7392C90.3106 16.3221 90.7381 15.8829 91.1777 15.4561C92.3371 14.3275 92.9021 14.3202 93.9976 15.4266V16.5282H94.0001Z" fill="#00CBA6"/>
    <path d="M35.7771 64.6286C35.7771 62.8891 35.7771 61.1473 35.7771 59.4078C35.7771 56.746 35.9097 54.0743 35.7451 51.4222C35.5118 47.6367 38.7812 45.0042 42.4412 46.6848C45.826 43.3409 49.2281 44.0327 50.7805 48.3776C54.1113 47.8943 55.5262 48.6377 56.7937 51.5179C57.5257 51.4615 58.2552 51.3044 58.9676 51.3658C61.252 51.5694 62.9223 53.3653 62.9346 55.6542C62.9641 61.0393 62.9493 66.4244 62.9444 71.812C62.9444 72.808 62.4065 73.4312 61.5934 73.4385C60.7484 73.4459 60.1957 72.8056 60.1933 71.7482C60.1859 66.6698 60.1884 61.5889 60.1884 56.5104C60.1884 56.2038 60.2007 55.8971 60.1712 55.5929C60.0852 54.7293 59.4441 54.1209 58.6016 54.0816C57.7394 54.0424 56.9976 54.6582 56.8772 55.534C56.8404 55.8039 56.8575 56.0836 56.8575 56.3583C56.8575 60.5192 56.8575 64.6825 56.8575 68.8434C56.8575 69.1182 56.8821 69.4003 56.8404 69.6677C56.72 70.4283 56.2803 70.8944 55.4869 70.8993C54.6935 70.9042 54.2489 70.4455 54.1187 69.6849C54.0745 69.4175 54.0991 69.1354 54.0991 68.8606C54.0991 63.6889 54.0991 58.5173 54.0991 53.3456C54.0991 53.0709 54.1138 52.7936 54.0892 52.5188C54.0082 51.5792 53.2835 50.8972 52.4017 50.9119C51.5125 50.9266 50.8002 51.6136 50.7805 52.5679C50.7486 54.035 50.7682 55.5046 50.7658 56.9741C50.7658 60.951 50.7682 64.9303 50.7609 68.9072C50.7609 69.2703 50.7535 69.6506 50.6454 69.9916C50.4342 70.6589 49.9232 70.9656 49.2256 70.892C48.528 70.8184 48.1203 70.4013 48.0294 69.7095C47.9901 69.4077 48.0073 69.0986 48.0073 68.7919C48.0073 62.4279 48.0073 56.0615 48.0024 49.6975C48.0024 49.305 47.9925 48.8953 47.8869 48.5199C47.6609 47.7176 46.9486 47.2638 46.1306 47.3717C45.3028 47.4797 44.8042 47.9654 44.6937 48.7971C44.6494 49.1283 44.6617 49.4693 44.6617 49.8054C44.6617 56.1081 44.6617 62.4132 44.6593 68.7158C44.6593 69.052 44.674 69.393 44.6151 69.7217C44.48 70.4872 44.0108 70.9239 43.2174 70.8895C42.4264 70.8552 41.9941 70.3939 41.9229 69.6138C41.8959 69.3096 41.9057 69.0029 41.9057 68.6962C41.9057 62.9431 41.9057 57.19 41.9057 51.4369C41.9057 51.1303 41.918 50.8236 41.886 50.5194C41.7804 49.5552 41.0779 48.8879 40.2059 48.8977C39.3314 48.9075 38.6486 49.5797 38.5528 50.5488C38.5233 50.853 38.538 51.1597 38.538 51.4664C38.538 57.1876 38.538 62.9112 38.538 68.6324C38.538 68.9072 38.5356 69.182 38.5331 69.4592C38.5282 70.1461 38.2285 70.6589 37.5579 70.8478C36.9021 71.0318 36.3543 70.8036 35.9662 70.2271C35.131 68.9833 34.2983 67.7345 33.4583 66.4956C32.7263 65.4161 31.9108 65.1045 30.9945 65.5388C30.0759 65.973 29.8032 66.8121 30.1741 68.0436C31.0093 70.8208 31.8886 73.5857 32.6575 76.3801C32.9891 77.5822 33.08 78.8482 33.3011 80.0822C33.866 83.2421 35.4528 85.7887 38.0467 87.6581C39.0735 88.3991 39.5648 89.2724 39.4837 90.5212C39.437 91.2229 39.4985 91.9294 39.4542 92.6311C39.4027 93.4382 38.8377 93.9829 38.118 93.9902C37.4056 94 36.6564 93.426 36.7719 92.6679C37.0716 90.715 36.0546 89.6061 34.7208 88.3941C32.3676 86.2548 30.9601 83.4801 30.5622 80.3153C30.0464 76.2133 28.5652 72.3885 27.4254 68.4632C26.5043 65.2959 28.9189 62.3445 32.176 62.6217C33.6376 62.7469 34.7356 63.5246 35.782 64.6188L35.7771 64.6286Z" fill="#00CBA6"/>
    <path d="M0.972668 15.9247C1.36323 15.9934 1.55237 15.9713 1.65554 16.0547C2.74125 16.9183 4.04558 17.6519 4.21998 19.2097C4.53439 21.9992 5.71344 24.3397 7.6859 26.3073C8.50878 27.1291 9.32921 27.9535 10.1226 28.7999C10.8104 29.5334 10.8202 30.3307 10.1938 30.9024C9.62151 31.4274 8.806 31.3808 8.15261 30.7135C6.02294 28.53 3.66484 26.5182 2.52754 23.5595C2.2205 22.7646 1.8717 21.955 1.7587 21.1233C1.60395 20.0071 1.16672 19.1508 0.36349 18.3584C0.0392506 18.0395 -0.0761983 17.2912 0.0392506 16.8177C0.135049 16.4276 0.709837 16.1529 0.970211 15.9222L0.972668 15.9247Z" fill="#00CBA6"/>
    <path d="M62.9492 81.0709C63.1555 84.2922 62.3179 87.5919 60.1809 90.5408C59.9868 90.8058 59.9745 91.2204 59.9303 91.5712C59.8738 92.0227 59.9303 92.4937 59.837 92.9353C59.6822 93.6615 59.1541 94.0344 58.4319 93.9829C57.7614 93.9338 57.2431 93.5388 57.2111 92.8323C57.1448 91.3603 56.9925 89.9447 58.1003 88.6027C59.552 86.8461 60.1489 84.67 60.1809 82.3737C60.2005 81.0292 60.1809 79.6848 60.1956 78.3403C60.2054 77.278 60.7336 76.6304 61.5687 76.6181C62.4112 76.6058 62.9369 77.2437 62.9492 78.3085C62.959 79.1033 62.9492 79.8982 62.9492 81.0685V81.0709Z" fill="#00CBA6"/>
  </g>
  <defs>
    <clipPath id="clip0_290_98">
      <rect width="94" height="94" fill="white"/>
    </clipPath>
  </defs>
</svg>