<svg width="87" height="74" viewBox="0 0 87 74" fill="none" xmlns="http://www.w3.org/2000/svg">
<g id="Diamond">
<path id="Vector" d="M66.4904 10.9084C66.2186 10.5092 65.7088 10.3096 65.216 10.3381C65.182 10.3381 65.1481 10.3381 65.1141 10.3381H22.4807C22.4467 10.3381 22.4127 10.3381 22.3957 10.3381C21.8859 10.3096 21.3932 10.5092 21.1213 10.9084L10.3652 26.535C10.1104 26.9057 10.1273 27.3477 10.3822 27.7041L42.6504 71.276C42.9053 71.6182 43.3301 71.8178 43.8059 71.8178C44.2816 71.8178 44.7065 71.6182 44.9613 71.276L77.1955 27.7041C77.4674 27.3477 77.4674 26.8914 77.2125 26.535L66.4904 10.9084ZM52.8457 28.2459L43.8059 65.1166L34.698 28.2459H52.8457ZM35.4117 25.9646L43.8059 13.76L52.2 25.9646H35.4117ZM46.1508 12.6336H62.9391L54.5449 24.8383L46.1508 12.6336ZM33.0498 24.824L24.6557 12.6193H41.4439L33.0498 24.824ZM40.9002 64.5748L14.0016 28.2459H31.9283L40.9002 64.5748ZM55.6324 28.2459H73.6102L46.7285 64.6033L55.6324 28.2459ZM73.6951 25.9646H56.9068L65.301 13.76L73.6951 25.9646ZM22.2938 13.7742L30.6879 25.9789H13.8996L22.2938 13.7742ZM3.77227 15.257H1.35938C0.611719 15.257 0 14.7437 0 14.1164C0 13.4891 0.611719 12.9758 1.35938 12.9758H3.77227V10.9369C3.77227 10.3096 4.38399 9.79629 5.13164 9.79629C5.8793 9.79629 6.49102 10.3096 6.49102 10.9369V12.9615H8.90391C9.65156 12.9615 10.2633 13.4748 10.2633 14.1021C10.2633 14.7295 9.65156 15.2428 8.90391 15.2428H6.50801V17.2674C6.50801 17.8947 5.89629 18.408 5.14863 18.408C4.40098 18.408 3.78926 17.8947 3.78926 17.2674V15.257H3.77227ZM75.1904 62.9352C75.1904 63.5625 74.5787 64.0758 73.8311 64.0758H71.4182V66.1004C71.4182 66.7277 70.8064 67.241 70.0588 67.241C69.3111 67.241 68.6994 66.7277 68.6994 66.1004V64.0758H66.2695C65.5219 64.0758 64.9102 63.5625 64.9102 62.9352C64.9102 62.3078 65.5219 61.7945 66.2695 61.7945H68.6824V59.7699C68.6824 59.1426 69.2942 58.6293 70.0418 58.6293C70.7895 58.6293 71.4012 59.1426 71.4012 59.7699V61.7945H73.8141C74.5787 61.7945 75.1904 62.3078 75.1904 62.9352ZM19.3541 50.702L14.8682 49.0053L12.8461 45.2412C12.6252 44.8277 12.1324 44.5711 11.6057 44.5711C11.0789 44.5711 10.5861 44.8277 10.3652 45.2412L8.32617 49.0053L3.84023 50.702C3.34746 50.8873 3.0416 51.2865 3.0416 51.7428C3.0416 52.1848 3.34746 52.5982 3.84023 52.7836L8.32617 54.4803L10.3652 58.2443C10.5861 58.6578 11.0789 58.9145 11.6057 58.9145C12.1324 58.9145 12.6252 58.6578 12.8461 58.2443L14.8682 54.4803L19.3541 52.7836C19.8469 52.5982 20.1527 52.1848 20.1527 51.7428C20.1527 51.2865 19.8299 50.8873 19.3541 50.702ZM13.2709 52.584C12.965 52.698 12.7271 52.8977 12.5912 53.1543L11.5887 55.0078L10.5861 53.1543C10.4502 52.8977 10.2123 52.698 9.90645 52.584L7.69746 51.7428L9.90645 50.9016C10.2123 50.7875 10.4502 50.5879 10.5861 50.3312L11.5887 48.4777L12.5912 50.3312C12.7271 50.5879 12.965 50.7875 13.2709 50.9016L15.4799 51.7428L13.2709 52.584ZM86.2014 8.31348L81.7154 6.6168L79.6934 2.85273C79.4725 2.43926 78.9797 2.18262 78.4529 2.18262C77.9262 2.18262 77.4334 2.43926 77.2125 2.85273L75.1904 6.6168L70.6875 8.31348C70.1947 8.49883 69.8889 8.9123 69.8889 9.3543C69.8889 9.79629 70.1947 10.2098 70.6875 10.3951L75.1734 12.0918L77.1955 15.8559C77.4164 16.2693 77.9092 16.526 78.4359 16.526C78.9627 16.526 79.4555 16.2693 79.6764 15.8559L81.6984 12.0918L86.1844 10.3951C86.6772 10.2098 86.983 9.81055 86.983 9.3543C87 8.9123 86.6941 8.49883 86.2014 8.31348ZM80.1352 10.1955C79.8293 10.3096 79.5914 10.5092 79.4555 10.7658L78.4529 12.6193L77.4504 10.7658C77.3145 10.5092 77.0766 10.3096 76.7707 10.1955L74.5617 9.3543L76.7707 8.51309C77.0766 8.39902 77.3145 8.19941 77.4504 7.94277L78.4529 6.08926L79.4555 7.94277C79.5914 8.19941 79.8293 8.39902 80.1352 8.51309L82.3441 9.3543L80.1352 10.1955Z" fill="black"/>
</g>
</svg>
