<svg width="87" height="74" viewBox="0 0 87 74" fill="none" xmlns="http://www.w3.org/2000/svg">
  <g id="goals">
    <path id="Vector" fill-rule="evenodd" clip-rule="evenodd" d="M43.5 5.0625C25.4946 5.0625 10.875 17.3295 10.875 32.4375C10.875 43.0712 18.1232 52.292 28.6919 56.8241L21.9911 66.6623C21.4944 67.3908 21.7953 68.3185 22.6635 68.7352C23.5317 69.1519 24.6373 68.8995 25.1339 68.171L32.0196 58.0605C35.5921 59.189 39.4599 59.8125 43.5 59.8125C47.5401 59.8125 51.4079 59.189 54.9804 58.0605L61.8661 68.171C62.3627 68.8995 63.4683 69.1519 64.3365 68.7352C65.2047 68.3185 65.5056 67.3908 65.0089 66.6623L58.3081 56.8241C68.8768 52.292 76.125 43.0712 76.125 32.4375C76.125 27.7792 74.7366 23.3901 72.2879 19.5484C71.8149 18.8093 70.7129 18.5295 69.8302 18.9249C68.9493 19.3218 68.6158 20.2465 69.0871 20.9871C71.2639 24.3999 72.5 28.2978 72.5 32.4375C72.5 45.868 59.5062 56.7708 43.5 56.7708C27.4938 56.7708 14.5 45.868 14.5 32.4375C14.5 19.007 27.4938 8.10417 43.5 8.10417C50.6539 8.10417 57.2043 10.2835 62.263 13.8909C63.0261 14.4354 64.1716 14.3533 64.8186 13.7145C65.4657 13.0743 65.3732 12.1146 64.612 11.5701C58.9189 7.51104 51.5475 5.0625 43.5 5.0625ZM76.125 5.0625C73.1235 5.0625 70.6875 7.1065 70.6875 9.625C70.6875 10.3261 70.8778 10.9922 71.2149 11.5854L45.9469 29.7608C45.1874 30.3068 45.0968 31.268 45.7475 31.9052C46.3982 32.5424 47.5437 32.6185 48.3031 32.0725L73.6781 13.8225C73.7144 13.7966 73.7416 13.7662 73.7742 13.7389C74.4865 14.0263 75.284 14.1875 76.125 14.1875C79.1265 14.1875 81.5625 12.1435 81.5625 9.625C81.5625 7.1065 79.1265 5.0625 76.125 5.0625ZM76.125 8.10417C77.1255 8.10417 77.9375 8.7855 77.9375 9.625C77.9375 10.4645 77.1255 11.1458 76.125 11.1458C75.1245 11.1458 74.3125 10.4645 74.3125 9.625C74.3125 8.7855 75.1245 8.10417 76.125 8.10417ZM43.5 12.6667C30.4953 12.6667 19.9375 21.5255 19.9375 32.4375C19.9375 43.3495 30.4953 52.2083 43.5 52.2083C56.5047 52.2083 67.0625 43.3495 67.0625 32.4375C67.0625 30.1274 66.5894 27.9069 65.7212 25.8462C65.3877 25.0554 64.3492 24.6387 63.4049 24.92C62.4624 25.1999 61.9676 26.0713 62.3011 26.8621C63.0369 28.6065 63.4375 30.4832 63.4375 32.4375C63.4375 41.6705 54.5037 49.1667 43.5 49.1667C32.4963 49.1667 23.5625 41.6705 23.5625 32.4375C23.5625 23.2045 32.4963 15.7083 43.5 15.7083C47.8391 15.7083 51.8556 16.8733 55.129 18.8504C55.941 19.3416 57.0738 19.1865 57.6574 18.5067C58.2411 17.8253 58.058 16.8733 57.246 16.3821C53.3763 14.0461 48.6276 12.6667 43.5 12.6667ZM43.5 20.2708C35.4978 20.2708 29 25.723 29 32.4375C29 39.152 35.4978 44.6042 43.5 44.6042C51.5022 44.6042 58 39.152 58 32.4375C58 31.598 57.188 30.9167 56.1875 30.9167C55.187 30.9167 54.375 31.598 54.375 32.4375C54.375 37.473 49.5012 41.5625 43.5 41.5625C37.4988 41.5625 32.625 37.473 32.625 32.4375C32.625 27.402 37.4988 23.3125 43.5 23.3125C45.1657 23.3125 46.7462 23.6288 48.1581 24.1915C49.0626 24.552 50.1428 24.228 50.5724 23.4707C51.0037 22.7118 50.6195 21.8054 49.7169 21.4434C47.8319 20.6921 45.7239 20.2708 43.5 20.2708ZM41.6386 28.2826C41.3449 28.2887 41.0477 28.3556 40.7776 28.4864C39.1536 29.2757 38.0625 30.7509 38.0625 32.4375C38.0625 34.956 40.4985 37 43.5 37C44.4914 37 45.4213 36.7764 46.2224 36.3886C47.0888 35.9674 47.3824 35.0351 46.8803 34.3081C46.3801 33.5827 45.269 33.3363 44.4026 33.7561C44.1362 33.8853 43.8299 33.9583 43.5 33.9583C42.4995 33.9583 41.6875 33.277 41.6875 32.4375C41.6875 31.8748 42.0554 31.382 42.5974 31.1189C43.4638 30.6977 43.7574 29.7684 43.2553 29.043C42.9109 28.5426 42.2802 28.2674 41.6386 28.2826Z" fill="#008e81"/>
  </g>
</svg>
