<svg width="68" height="68" viewBox="0 0 68 68" fill="none" xmlns="http://www.w3.org/2000/svg">
  <g clip-path="url(#clip0_723_119)">
    <path d="M17.2433 67.7593C14.6131 67.73 12.0077 67.2476 9.54133 66.3333C7.7403 65.6676 6.11081 64.6078 4.772 63.2313C3.39185 61.8952 2.33046 60.2653 1.66667 58.4627C0.753169 55.9964 0.271455 53.3912 0.242667 50.7613C0.0406667 46.3893 0 45.078 0 34C0 22.922 0.0446667 21.6153 0.240667 17.24C0.272948 14.6112 0.755255 12.0073 1.66667 9.54133C2.33369 7.74 3.39357 6.10986 4.76933 4.76933C6.10648 3.39042 7.73674 2.33001 9.53933 1.66667C12.0057 0.752411 14.6111 0.270019 17.2413 0.240667C21.6147 0.0406667 22.928 0 34 0C45.072 0 46.3847 0.0446667 50.76 0.240667C53.3895 0.27272 55.9941 0.75503 58.4607 1.66667C60.2625 2.33089 61.8923 3.39093 63.23 4.76867C64.6082 6.10683 65.6686 7.73706 66.3333 9.53933C67.2478 12.0056 67.7304 14.6111 67.76 17.2413C67.96 21.6167 68.0007 22.9267 68.0007 34.0013C68.0007 45.076 67.96 46.386 67.76 50.7613C67.7282 53.3911 67.2457 55.996 66.3333 58.4627C65.6432 60.2514 64.5861 61.8759 63.2302 63.2315C61.8743 64.587 60.2496 65.6436 58.4607 66.3333C55.9944 67.2478 53.3889 67.7304 50.7587 67.76C46.3873 67.96 45.0733 68.0007 33.9987 68.0007C22.924 68.0007 21.614 67.962 17.2427 67.76" fill="url(#paint0_radial_723_119)"/>
    <path d="M17.2433 67.7593C14.6131 67.73 12.0077 67.2476 9.54133 66.3333C7.7403 65.6676 6.11081 64.6078 4.772 63.2313C3.39185 61.8952 2.33046 60.2653 1.66667 58.4627C0.753169 55.9964 0.271455 53.3912 0.242667 50.7613C0.0406667 46.3893 0 45.078 0 34C0 22.922 0.0446667 21.6153 0.240667 17.24C0.272948 14.6112 0.755255 12.0073 1.66667 9.54133C2.33369 7.74 3.39357 6.10986 4.76933 4.76933C6.10648 3.39042 7.73674 2.33001 9.53933 1.66667C12.0057 0.752411 14.6111 0.270019 17.2413 0.240667C21.6147 0.0406667 22.928 0 34 0C45.072 0 46.3847 0.0446667 50.76 0.240667C53.3895 0.27272 55.9941 0.75503 58.4607 1.66667C60.2625 2.33089 61.8923 3.39093 63.23 4.76867C64.6082 6.10683 65.6686 7.73706 66.3333 9.53933C67.2478 12.0056 67.7304 14.6111 67.76 17.2413C67.96 21.6167 68.0007 22.9267 68.0007 34.0013C68.0007 45.076 67.96 46.386 67.76 50.7613C67.7282 53.3911 67.2457 55.996 66.3333 58.4627C65.6432 60.2514 64.5861 61.8759 63.2302 63.2315C61.8743 64.587 60.2496 65.6436 58.4607 66.3333C55.9944 67.2478 53.3889 67.7304 50.7587 67.76C46.3873 67.96 45.0733 68.0007 33.9987 68.0007C22.924 68.0007 21.614 67.962 17.2427 67.76" fill="url(#paint1_radial_723_119)"/>
    <path d="M25.6513 34.1447C25.6514 32.4792 26.1454 30.8512 27.0708 29.4665C27.9962 28.0818 29.3115 27.0026 30.8502 26.3654C32.389 25.7282 34.0822 25.5616 35.7156 25.8867C37.3491 26.2118 38.8494 27.014 40.0269 28.1918C41.2045 29.3696 42.0063 30.8701 42.331 32.5036C42.6557 34.1372 42.4887 35.8303 41.8512 37.3689C41.2136 38.9075 40.1341 40.2225 38.7492 41.1476C37.3642 42.0727 35.7361 42.5663 34.0706 42.566C31.8374 42.5657 29.6958 41.6783 28.1169 40.099C26.538 38.5197 25.6511 36.3779 25.6513 34.1447ZM21.0986 34.1447C21.0986 36.7103 21.8594 39.2183 23.2848 41.3516C24.7102 43.4848 26.7361 45.1474 29.1064 46.1293C31.4767 47.1111 34.085 47.368 36.6013 46.8674C39.1176 46.3669 41.429 45.1315 43.2432 43.3173C45.0573 41.5031 46.2928 39.1917 46.7933 36.6754C47.2939 34.1591 47.037 31.5509 46.0552 29.1805C45.0733 26.8102 43.4107 24.7843 41.2774 23.3589C39.1442 21.9335 36.6362 21.1727 34.0706 21.1727C32.3671 21.1726 30.6802 21.5081 29.1063 22.16C27.5324 22.8118 26.1024 23.7673 24.8978 24.9719C23.6932 26.1765 22.7377 27.6066 22.0858 29.1804C21.434 30.7543 21.0985 32.4412 21.0986 34.1447ZM44.5246 20.6587C44.5243 21.2582 44.7019 21.8444 45.0347 22.343C45.3676 22.8417 45.8408 23.2304 46.3946 23.4601C46.9485 23.6898 47.5579 23.7501 48.146 23.6334C48.7341 23.5167 49.2743 23.2282 49.6985 22.8045C50.1226 22.3807 50.4115 21.8407 50.5288 21.2527C50.646 20.6648 50.5862 20.0552 50.357 19.5012C50.1278 18.9472 49.7395 18.4736 49.2411 18.1403C48.7428 17.807 48.1568 17.629 47.5573 17.6287C46.7536 17.6291 45.983 17.9484 45.4146 18.5165C44.8463 19.0846 44.5266 19.8551 44.5259 20.6587M23.8659 54.708C22.264 54.6904 20.6771 54.3973 19.1746 53.8414C18.085 53.4214 17.0954 52.7779 16.2695 51.9524C15.4436 51.1268 14.7997 50.1375 14.3793 49.048C13.8231 47.5456 13.5299 45.9586 13.5126 44.3567C13.3899 41.694 13.3659 40.894 13.3659 34.148C13.3659 27.402 13.3926 26.604 13.5126 23.9387C13.532 22.337 13.8251 20.7503 14.3793 19.2474C14.7992 18.1574 15.4429 17.1676 16.2688 16.3416C17.0948 15.5157 18.0846 14.872 19.1746 14.452C20.677 13.8959 22.264 13.6027 23.8659 13.5854C26.5286 13.4627 27.3286 13.4387 34.0719 13.4387C40.8153 13.4387 41.6159 13.4647 44.2813 13.586C45.883 13.6055 47.4696 13.8986 48.9726 14.4527C50.0625 14.8727 51.0524 15.5164 51.8783 16.3423C52.7042 17.1683 53.3479 18.1581 53.7679 19.248C54.324 20.7504 54.6172 22.3374 54.6346 23.9394C54.7573 26.606 54.7813 27.402 54.7813 34.1487C54.7813 40.8954 54.7566 41.6927 54.6346 44.358C54.6159 45.9598 54.3228 47.5466 53.7679 49.0494C53.3475 50.1388 52.7036 51.1281 51.8777 51.9537C51.0518 52.7792 50.0622 53.4227 48.9726 53.8427C47.4702 54.3988 45.8832 54.692 44.2813 54.7094C41.6186 54.832 40.8186 54.856 34.0719 54.856C27.3253 54.856 26.5279 54.8314 23.8659 54.7094M23.6566 9.0367C21.5605 9.07791 19.4866 9.47466 17.5233 10.21C15.8449 10.8589 14.3207 11.8514 13.0483 13.1238C11.776 14.3962 10.7835 15.9204 10.1346 17.5987C9.39932 19.562 9.00258 21.6359 8.96126 23.732C8.83659 26.4254 8.80859 27.2867 8.80859 34.1474C8.80859 41.008 8.83726 41.8687 8.96126 44.5627C9.00256 46.6588 9.39931 48.7327 10.1346 50.696C10.7835 52.3743 11.776 53.8985 13.0484 55.1709C14.3208 56.4433 15.845 57.4357 17.5233 58.0847C19.4867 58.8197 21.5605 59.2165 23.6566 59.258C26.3513 59.3807 27.2113 59.4107 34.0719 59.4107C40.9326 59.4107 41.7933 59.382 44.4873 59.258C46.5834 59.2166 48.6572 58.8199 50.6206 58.0847C52.2989 57.4357 53.8231 56.4433 55.0955 55.1709C56.3678 53.8985 57.3603 52.3743 58.0093 50.696C58.7455 48.733 59.1423 46.6589 59.1826 44.5627C59.3053 41.8674 59.3333 41.008 59.3333 34.1474C59.3333 27.2867 59.3046 26.426 59.1826 23.732C59.1414 21.6359 58.7446 19.562 58.0093 17.5987C57.3604 15.9207 56.3681 14.3967 55.0961 13.1244C53.8241 11.852 52.3004 10.8594 50.6226 10.21C48.6594 9.47418 46.5854 9.07742 44.4893 9.0367C41.7953 8.91337 40.9346 8.88403 34.0753 8.88403C27.2159 8.88403 26.3533 8.9127 23.6579 9.0367" fill="white"/>
  </g>
  <defs>
    <radialGradient id="paint0_radial_723_119" cx="0" cy="0" r="1" gradientUnits="userSpaceOnUse" gradientTransform="translate(4.40066 66.5107) scale(86.3347)">
      <stop offset="0.09" stop-color="#FA8F21"/>
      <stop offset="0.78" stop-color="#D82D7E"/>
    </radialGradient>
    <radialGradient id="paint1_radial_723_119" cx="0" cy="0" r="1" gradientUnits="userSpaceOnUse" gradientTransform="translate(47.1013 64.3267) scale(75.9753)">
      <stop offset="0.64" stop-color="#8C3AAA" stop-opacity="0"/>
      <stop offset="1" stop-color="#8C3AAA"/>
    </radialGradient>
    <clipPath id="clip0_723_119">
      <rect width="68" height="68" fill="white"/>
    </clipPath>
  </defs>
</svg>