<svg width="69" height="69" viewBox="0 0 69 69" fill="none" xmlns="http://www.w3.org/2000/svg">
  <rect x="0.5" y="0.5" width="68" height="68" rx="34" fill="white"/>
  <path d="M27.543 17.9358H41.4568C46.7573 17.9358 51.064 22.2425 51.064 27.543V41.4568C51.064 44.0048 50.0518 46.4484 48.2501 48.2501C46.4484 50.0518 44.0048 51.064 41.4568 51.064H27.543C22.2425 51.064 17.9358 46.7573 17.9358 41.4568V27.543C17.9358 24.995 18.948 22.5514 20.7497 20.7497C22.5514 18.948 24.995 17.9358 27.543 17.9358ZM27.2117 21.2486C25.6302 21.2486 24.1135 21.8769 22.9952 22.9952C21.8769 24.1135 21.2486 25.6302 21.2486 27.2117V41.7881C21.2486 45.0844 23.9154 47.7512 27.2117 47.7512H41.7881C43.3696 47.7512 44.8863 47.1229 46.0046 46.0046C47.1229 44.8863 47.7512 43.3696 47.7512 41.7881V27.2117C47.7512 23.9154 45.0844 21.2486 41.7881 21.2486H27.2117ZM43.196 23.7332C43.7452 23.7332 44.2718 23.9514 44.6601 24.3397C45.0484 24.728 45.2666 25.2546 45.2666 25.8037C45.2666 26.3529 45.0484 26.8795 44.6601 27.2678C44.2718 27.6561 43.7452 27.8743 43.196 27.8743C42.6469 27.8743 42.1203 27.6561 41.732 27.2678C41.3437 26.8795 41.1255 26.3529 41.1255 25.8037C41.1255 25.2546 41.3437 24.728 41.732 24.3397C42.1203 23.9514 42.6469 23.7332 43.196 23.7332ZM34.4999 26.2178C36.6964 26.2178 38.803 27.0904 40.3562 28.6436C41.9094 30.1968 42.7819 32.3034 42.7819 34.4999C42.7819 36.6964 41.9094 38.803 40.3562 40.3562C38.803 41.9094 36.6964 42.7819 34.4999 42.7819C32.3034 42.7819 30.1968 41.9094 28.6436 40.3562C27.0904 38.803 26.2178 36.6964 26.2178 34.4999C26.2178 32.3034 27.0904 30.1968 28.6436 28.6436C30.1968 27.0904 32.3034 26.2178 34.4999 26.2178ZM34.4999 29.5307C33.182 29.5307 31.918 30.0542 30.9861 30.9861C30.0542 31.918 29.5307 33.182 29.5307 34.4999C29.5307 35.8178 30.0542 37.0818 30.9861 38.0137C31.918 38.9456 33.182 39.4691 34.4999 39.4691C35.8178 39.4691 37.0818 38.9456 38.0137 38.0137C38.9456 37.0818 39.4691 35.8178 39.4691 34.4999C39.4691 33.182 38.9456 31.918 38.0137 30.9861C37.0818 30.0542 35.8178 29.5307 34.4999 29.5307Z" fill="#6D6D6D"/>
</svg>