<svg width="87" height="87" viewBox="0 0 81 76" fill="none" xmlns="http://www.w3.org/2000/svg">
  <g clip-path="url(#clip0_290_105)">
    <path d="M80.4962 8.86612C80.4962 6.69076 79.1143 4.91546 77.0519 4.41329C76.5781 4.29869 76.073 4.29661 75.5803 4.27994C74.9604 4.2591 74.3383 4.27577 73.6432 4.27577C73.6286 3.93822 73.6056 3.66317 73.6035 3.38812C73.5952 1.169 72.9502 0.533481 70.7041 0.531397C66.0179 0.531397 61.3296 0.531397 56.6433 0.531397C53.8316 0.531397 51.0157 0.608493 48.2081 0.51056C45.054 0.400125 42.4093 1.26277 40.4283 4.14242C40.3595 3.94863 40.3448 3.83195 40.2843 3.75068C38.6332 1.50864 36.3996 0.51056 33.6234 0.520979C26.2026 0.548066 18.7819 0.529313 11.3591 0.531397C10.76 0.531397 10.1609 0.516811 9.5618 0.541815C8.23838 0.598075 7.45143 1.39196 7.40133 2.71301C7.38255 3.20268 7.39925 3.69234 7.39925 4.27577C6.68118 4.27577 6.03617 4.27369 5.39324 4.27577C2.89253 4.28827 1.41881 5.36137 0.633948 7.73468C0.610987 7.80136 0.546277 7.85553 0.502441 7.91388V71.862C0.60055 72.0933 0.702833 72.3267 0.798854 72.558C1.53988 74.3229 2.84869 75.323 4.77537 75.4751C5.11144 75.5022 5.45169 75.5001 5.78985 75.5001C28.9392 75.5001 52.0886 75.5022 75.2359 75.4918C75.931 75.4918 76.6553 75.4564 77.3191 75.2709C79.0851 74.7792 80.3459 73.1518 80.4878 71.3265C80.4983 71.1973 80.5004 71.0661 80.5004 70.9369C80.5004 50.2459 80.5045 29.5571 80.4962 8.86612ZM41.6683 13.6503C42.0899 13.9982 42.3613 14.2045 42.6139 14.4337C43.2129 14.9776 43.8559 15.0213 44.3485 14.5337C44.8223 14.0649 44.8808 13.3815 44.3193 12.873C43.6951 12.3084 42.9792 11.8124 42.2298 11.4311C41.8081 11.2165 41.6432 11.0352 41.6599 10.581C41.6912 9.7246 41.6432 8.86404 41.685 8.00764C41.8332 5.00089 43.954 2.92555 46.9724 2.8797C49.6276 2.84012 52.2848 2.86929 54.94 2.86929C60.0437 2.86929 65.1474 2.86929 70.2533 2.86929H71.2155V58.4473H70.2762C63.0893 58.4473 55.9002 58.4806 48.7133 58.4285C46.1833 58.4098 43.7703 58.5932 41.7204 60.5289V51.5316C42.0941 51.8483 42.3675 52.0671 42.6243 52.3025C43.1754 52.8047 43.8266 52.8589 44.3026 52.4338C44.8244 51.9671 44.8996 51.2482 44.3088 50.7189C43.6638 50.1417 42.8706 49.7333 42.1546 49.2312C41.9688 49.102 41.6954 48.9061 41.6912 48.7353C41.6557 47.21 41.6703 45.6827 41.6703 43.9199C42.1066 44.2908 42.3905 44.5221 42.664 44.7659C43.2296 45.2701 43.8538 45.2972 44.3401 44.8304C44.8203 44.3679 44.8891 43.6657 44.3318 43.1698C43.6847 42.5926 42.9019 42.1675 42.188 41.6633C42.0002 41.5299 41.6996 41.3549 41.6975 41.1923C41.6599 39.6421 41.6745 38.0918 41.6745 36.3415C42.0941 36.6958 42.3675 36.9145 42.6264 37.15C43.1816 37.6563 43.8225 37.7147 44.3026 37.2875C44.8265 36.8229 44.9037 36.0998 44.313 35.5747C43.668 34.9996 42.8748 34.5892 42.1588 34.0891C41.973 33.9599 41.6975 33.7661 41.6933 33.5973C41.6578 32.0721 41.6724 30.5447 41.6724 28.7965C42.0857 29.1341 42.3592 29.3383 42.6097 29.5675C43.2171 30.1217 43.8413 30.1697 44.3422 29.6842C44.839 29.2049 44.8808 28.4986 44.2775 27.9651C43.6471 27.4067 42.8831 27.0004 42.1859 26.5149C41.9981 26.3836 41.6996 26.2065 41.6954 26.0461C41.6578 24.4979 41.6724 22.9456 41.6724 21.1973C42.0941 21.5537 42.3696 21.7724 42.6285 22.0079C43.1837 22.5163 43.8204 22.5705 44.3026 22.1413C44.8244 21.6766 44.8954 20.9556 44.3151 20.4243C43.7139 19.8721 43.023 19.3741 42.2882 19.0261C41.7935 18.7928 41.6495 18.5636 41.6599 18.0593C41.6891 16.6633 41.6703 15.2672 41.6703 13.6461L41.6683 13.6503ZM9.77889 2.86929H10.6535C18.3101 2.86929 25.9647 2.86512 33.6213 2.86929C37.1678 2.87137 39.3095 5.00714 39.3304 8.5369C39.3304 8.71818 39.3158 8.90154 39.3324 9.08282C39.4556 10.3685 39.4285 11.5082 37.7982 11.9166C37.3118 12.0396 36.8964 12.6022 36.5374 13.0356C36.1116 13.5544 36.2097 14.1274 36.7023 14.5671C37.1678 14.9838 37.7043 14.9734 38.199 14.5921C38.5204 14.3441 38.8106 14.0524 39.2281 13.6773C39.2761 14.0128 39.3241 14.1983 39.3241 14.3837C39.3304 15.5797 39.3011 16.7758 39.3387 17.9697C39.3575 18.5323 39.2114 18.8011 38.6457 19.0491C37.9297 19.3637 37.2701 19.8763 36.6898 20.416C36.1074 20.9577 36.1658 21.6641 36.6835 22.1329C37.1636 22.5684 37.8086 22.5184 38.3576 22.0162C38.6186 21.7787 38.892 21.5537 39.3178 21.1869C39.3178 22.9622 39.3304 24.5375 39.297 26.1107C39.2949 26.2482 38.9964 26.392 38.821 26.5128C38.103 27.0108 37.3244 27.44 36.6752 28.0151C36.1095 28.5173 36.17 29.2028 36.646 29.6717C37.1469 30.1655 37.7815 30.128 38.3785 29.5779C38.6206 29.355 38.8732 29.1403 39.3283 28.7423C39.3283 29.4696 39.3283 29.9655 39.3283 30.4614C39.3283 31.424 39.3053 32.3867 39.3387 33.3473C39.3554 33.789 39.1655 33.9349 38.7939 34.1307C38.0696 34.5121 37.3536 34.96 36.7461 35.5018C36.1095 36.0686 36.1491 36.7916 36.6856 37.275C37.1824 37.7251 37.8253 37.6563 38.4161 37.1042C38.6561 36.8812 38.9191 36.6812 39.3199 36.3478C39.3199 38.1043 39.3324 39.6796 39.299 41.2528C39.297 41.3924 39.0005 41.5361 38.8273 41.657C38.1092 42.155 37.3285 42.5822 36.6794 43.1572C36.1137 43.6573 36.1721 44.3491 36.6439 44.8159C37.1386 45.3055 37.7836 45.268 38.3743 44.7221C38.6165 44.4971 38.8711 44.2845 39.3283 43.8824C39.3283 44.5533 39.3283 44.9971 39.3283 45.4389C39.3283 46.4536 39.3074 47.4663 39.3366 48.479C39.3491 48.9103 39.178 49.0666 38.8002 49.2708C38.0362 49.6854 37.291 50.1751 36.6501 50.7585C36.097 51.2628 36.1825 51.9566 36.6773 52.413C37.1469 52.8464 37.8149 52.8005 38.3576 52.3088C38.6186 52.0712 38.892 51.8441 39.2719 51.5128V60.4268C39.107 60.3184 39.0005 60.2622 38.9087 60.1872C37.4141 58.9703 35.6983 58.4327 33.7778 58.4369C26.0962 58.4494 18.4145 58.4411 10.7328 58.4411H9.7768V2.86929H9.77889ZM39.2552 66.0173H9.78307V60.8269C9.9605 60.8123 10.1108 60.7894 10.259 60.7894C18.2266 60.7894 26.1922 60.7748 34.1598 60.7956C36.8359 60.8039 39.13 62.9585 39.2844 65.5172C39.2928 65.6673 39.2677 65.8214 39.2552 66.0152V66.0173ZM78.1437 71.1578C78.0372 72.2309 77.2419 73.0268 76.169 73.1331C75.8851 73.1602 75.597 73.1602 75.3111 73.1602C52.1116 73.1602 28.9121 73.1602 5.71262 73.1602C5.42664 73.1602 5.13858 73.1602 4.85469 73.1352C3.74628 73.031 2.94054 72.21 2.85287 71.1015C2.83617 70.8952 2.84243 70.6868 2.84243 70.4785C2.84243 50.0751 2.84243 29.6717 2.84869 9.26827C2.84869 8.85987 2.87583 8.42646 3.00525 8.04515C3.27661 7.24293 3.87152 6.72618 4.72318 6.6595C5.57276 6.59282 6.43277 6.64492 7.39716 6.64492V7.7201C7.39716 26.9796 7.39716 46.239 7.40133 65.4985C7.40133 65.9361 7.42012 66.3882 7.52866 66.8091C7.73323 67.6009 8.27596 68.1093 9.07752 68.2906C9.42821 68.3698 9.79977 68.3885 10.1609 68.3885C26.7474 68.3927 43.3319 68.3927 59.9185 68.3885C60.2274 68.3885 60.5489 68.3865 60.8453 68.3073C61.4235 68.1552 61.7199 67.7218 61.6803 67.1446C61.6385 66.5361 61.2816 66.1382 60.6407 66.0757C60.3819 66.0507 60.121 66.0631 59.86 66.0631C54.1322 66.0631 48.4043 66.0631 42.6744 66.0631H41.7747C41.5075 63.3085 43.9874 60.8039 46.9369 60.7935C52.7691 60.7748 58.6013 60.7873 64.4336 60.7873C66.6713 60.7873 68.909 60.7873 71.2051 60.7873V66.0256C70.9484 66.0381 70.6728 66.0611 70.3994 66.0611C68.838 66.0652 67.2745 66.0548 65.7131 66.0673C64.8406 66.0736 64.3626 66.5028 64.3709 67.2321C64.3793 67.9218 64.851 68.3781 65.6651 68.3865C67.5396 68.4073 69.4141 68.4198 71.2886 68.3844C72.6976 68.3573 73.5493 67.4696 73.6035 66.0673C73.614 65.7819 73.6056 65.4964 73.6056 65.2088C73.6056 46.0536 73.6056 26.8983 73.6056 7.74302V6.56782C74.6514 6.61991 75.6701 6.55532 76.6366 6.75118C77.5508 6.93455 78.0372 7.68884 78.1458 8.62858C78.1729 8.85987 78.1604 9.09532 78.1604 9.3287C78.1604 29.705 78.1604 50.0834 78.1604 70.4597C78.1604 70.6931 78.1687 70.9285 78.1458 71.1619L78.1437 71.1578Z" fill="#00CBA6"/>
    <path d="M12.0706 23.7081C12.0727 25.2187 12.8743 26.0085 14.3814 26.023C15.0055 26.0293 15.6318 26.0314 16.2559 26.023C17.0846 26.0085 17.5564 25.6105 17.5814 24.9166C17.6085 24.2019 17.1076 23.7268 16.2684 23.6997C15.6756 23.681 15.0828 23.6956 14.467 23.6956V9.02854H31.2393V23.6935C30.9012 23.6935 30.6194 23.6935 30.3397 23.6935C27.4235 23.6935 24.5074 23.6852 21.5892 23.6997C20.7584 23.7039 20.2387 24.2123 20.2637 24.9124C20.2888 25.5938 20.7751 26.0189 21.5934 26.021C24.8748 26.0293 28.1562 26.0335 31.4355 26.021C32.7485 26.0147 33.5981 25.1937 33.6044 23.8789C33.6211 18.8364 33.6232 13.7939 33.6044 8.75141C33.5981 7.4762 32.759 6.65106 31.4794 6.64898C25.7244 6.63231 19.9694 6.63231 14.2144 6.64898C12.9014 6.65314 12.102 7.49287 12.0727 8.81809C12.0581 9.4682 12.0686 10.1183 12.0686 10.7684C12.0686 15.0837 12.0644 19.399 12.0706 23.7143V23.7081Z" fill="#00CBA6"/>
    <path d="M13.6025 40.6526C16.6752 40.6901 19.7479 40.6734 22.8205 40.6734C23.9394 40.6734 25.0603 40.6734 26.1792 40.6734C28.2353 40.6734 30.2935 40.6838 32.3496 40.6651C33.0864 40.6588 33.5811 40.1858 33.6062 39.544C33.6312 38.8794 33.1157 38.3814 32.3496 38.3355C32.2202 38.3272 32.0886 38.3334 31.9592 38.3334C25.8661 38.3334 19.7729 38.3334 13.6819 38.3334C13.4481 38.3334 13.2059 38.323 12.9847 38.3772C12.1351 38.5876 11.751 39.6086 12.3584 40.2004C12.6507 40.4838 13.1809 40.6463 13.6046 40.6505L13.6025 40.6526Z" fill="#00CBA6"/>
    <path d="M32.5774 50.6646C32.3749 50.6313 32.162 50.65 31.9533 50.65C28.9328 50.65 25.9123 50.65 22.8918 50.65C20.5226 50.65 18.1534 50.65 15.7842 50.65C14.9763 50.65 14.1685 50.6375 13.3628 50.6542C12.5821 50.6709 12.0707 51.148 12.0728 51.819C12.0769 52.4878 12.5884 52.9483 13.3711 52.9838C13.4755 52.9879 13.5799 52.9838 13.6842 52.9838C19.7774 52.9838 25.8705 52.9838 31.9637 52.9838C32.1975 52.9838 32.4417 53.0046 32.663 52.9483C33.2642 52.7983 33.619 52.3899 33.594 51.7711C33.5689 51.1564 33.1974 50.7709 32.5774 50.6667V50.6646Z" fill="#00CBA6"/>
    <path d="M31.7714 32.1928C28.8052 32.1907 25.8369 32.1928 22.8686 32.1928C20.7603 32.1928 18.652 32.1928 16.5437 32.1928C15.4249 32.1928 14.3039 32.1824 13.1872 32.2157C12.515 32.2366 12.1205 32.6554 12.0892 33.3055C12.0579 33.964 12.4399 34.3724 13.0911 34.4953C13.3187 34.539 13.5566 34.5307 13.7904 34.5307C19.8293 34.5307 25.8682 34.5328 31.9071 34.5307C32.191 34.5307 32.4853 34.5224 32.7566 34.4494C33.3328 34.2932 33.6313 33.866 33.5937 33.2888C33.5582 32.7179 33.2263 32.3199 32.6293 32.2303C32.3475 32.1887 32.0594 32.1949 31.7735 32.1949L31.7714 32.1928Z" fill="#00CBA6"/>
    <path d="M32.164 44.499C32.0597 44.4969 31.9553 44.499 31.8509 44.499C25.8392 44.499 19.8274 44.499 13.8157 44.499C13.6069 44.499 13.3982 44.4927 13.1915 44.5136C12.5131 44.5865 12.0351 45.0678 12.079 45.6804C12.1249 46.3347 12.4923 46.7264 13.1602 46.7994C13.3919 46.8244 13.6278 46.816 13.8616 46.816C16.8278 46.816 19.794 46.816 22.7623 46.816C25.8851 46.816 29.0079 46.8202 32.1306 46.8139C33.0553 46.8139 33.5918 46.3805 33.6022 45.6742C33.6127 44.9657 33.07 44.5219 32.1619 44.499H32.164Z" fill="#00CBA6"/>
    <path d="M50.581 25.2375C51.1801 25.7605 51.8585 25.7459 52.3156 25.2417C52.779 24.7312 52.7164 24.0873 52.1465 23.5143C52.0171 23.3851 51.8793 23.2663 51.7499 23.1392C47.2891 18.7114 48.9778 11.1581 54.904 9.06396C55.4238 8.88059 55.9748 8.78891 56.5844 8.6368C56.5844 10.9559 56.6867 13.1417 56.551 15.315C56.4508 16.934 56.9163 18.1092 58.1458 19.1844C59.8011 20.6367 61.2977 22.2703 62.999 23.9644C62.0116 24.4228 61.185 24.9979 60.2791 25.1771C58.9724 25.4334 57.6114 25.4521 56.2713 25.4771C55.2672 25.4979 54.5324 26.2564 54.9917 27.0336C55.215 27.4087 55.7661 27.7379 56.2149 27.8108C62.3435 28.8027 68.2676 24.0644 68.587 17.8383C68.8229 13.2355 66.8732 9.66822 62.7965 7.51578C58.7469 5.37584 54.6869 5.74465 51.0799 8.56387C47.4165 11.4269 46.1891 15.2962 47.2349 19.8199C47.7338 21.9786 48.9048 23.7768 50.5789 25.2375H50.581ZM58.939 8.93269C58.939 8.86184 58.9807 8.78891 59.0225 8.65556C62.0847 9.23274 64.3307 10.8663 65.5686 13.7189C66.8461 16.6673 66.4307 19.4782 64.4664 22.3953C64.1491 21.9744 63.9362 21.6181 63.6544 21.3306C62.2329 19.8866 60.7863 18.4676 59.3669 17.0194C59.1665 16.8152 58.9536 16.511 58.9515 16.2485C58.9223 13.8085 58.9369 11.3685 58.9431 8.92852L58.939 8.93269Z" fill="#00CBA6"/>
    <path d="M67.842 38.3458C67.6374 38.3208 67.4266 38.3333 67.2179 38.3333C61.1769 38.3333 55.1359 38.3333 49.095 38.3333C48.8612 38.3333 48.6211 38.3125 48.3936 38.3583C47.7841 38.4813 47.4062 38.8709 47.4062 39.4898C47.4062 40.142 47.7841 40.5525 48.4416 40.6546C48.6712 40.69 48.9092 40.6712 49.143 40.6712C52.1363 40.6712 55.1318 40.6712 58.1251 40.6712C60.8847 40.6712 63.6442 40.6712 66.4059 40.6712C66.8755 40.6712 67.3452 40.6962 67.8107 40.6587C68.4724 40.6045 68.8544 40.2128 68.917 39.5585C68.9755 38.9501 68.4995 38.4292 67.8399 38.3458H67.842Z" fill="#00CBA6"/>
    <path d="M67.4934 50.675C64.3957 50.6271 61.2959 50.65 58.1982 50.6479C56.0106 50.6479 53.823 50.6479 51.6374 50.6479C50.623 50.6479 49.6064 50.6312 48.5919 50.6562C47.8759 50.675 47.3812 51.1897 47.3958 51.8314C47.4083 52.444 47.8822 52.9149 48.5564 52.9754C48.738 52.992 48.9217 52.9816 49.1033 52.9816C55.1443 52.9816 61.1853 52.9816 67.2262 52.9816C67.46 52.9816 67.7001 53.0004 67.9276 52.9587C68.7605 52.8128 69.2468 51.8856 68.7396 51.2563C68.4766 50.9313 67.9234 50.6792 67.4955 50.6729L67.4934 50.675Z" fill="#00CBA6"/>
    <path d="M68.1966 32.3115C68.0087 32.1448 67.5996 32.1969 67.2907 32.1969C64.2451 32.1907 61.1996 32.1927 58.1541 32.1927V32.1969C55.0042 32.1969 51.8543 32.1886 48.7065 32.2032C47.9112 32.2073 47.4018 32.6824 47.3956 33.3429C47.3893 34.0014 47.8986 34.4744 48.6793 34.5306C48.8338 34.5411 48.9924 34.5348 49.1469 34.5348C55.1586 34.5348 61.1725 34.5348 67.1842 34.5306C67.4932 34.5306 67.8835 34.5827 68.0943 34.4244C68.4325 34.1681 68.8521 33.7638 68.8688 33.4075C68.8855 33.045 68.5118 32.597 68.1945 32.3136L68.1966 32.3115Z" fill="#00CBA6"/>
    <path d="M67.2597 44.499C67.2347 44.499 67.2075 44.499 67.1825 44.499C61.1707 44.499 55.159 44.499 49.1472 44.499C48.8884 44.499 48.6233 44.4928 48.3686 44.5365C47.7403 44.6449 47.398 45.0637 47.4084 45.6742C47.4168 46.2847 47.7696 46.6931 48.402 46.7848C48.6567 46.8223 48.9218 46.8161 49.1806 46.8161C52.174 46.8161 55.1653 46.8161 58.1586 46.8161C61.2041 46.8161 64.2476 46.8161 67.2931 46.8161C68.3723 46.8161 68.9108 46.4348 68.9255 45.6805C68.9422 44.9074 68.3744 44.5032 67.2597 44.4969V44.499Z" fill="#00CBA6"/>
  </g>
  <defs>
    <clipPath id="clip0_290_105">
      <rect width="80" height="75" fill="white" transform="translate(0.5 0.5)"/>
    </clipPath>
  </defs>
</svg>