<svg width="50" height="49" viewBox="0 0 50 49" fill="none" xmlns="http://www.w3.org/2000/svg">
  <path d="M39.2917 6.125C40.3746 6.125 41.4132 6.55521 42.179 7.32098C42.9448 8.08675 43.375 9.12537 43.375 10.2083V38.7917C43.375 39.8746 42.9448 40.9132 42.179 41.679C41.4132 42.4448 40.3746 42.875 39.2917 42.875H10.7083C9.62537 42.875 8.58675 42.4448 7.82098 41.679C7.05521 40.9132 6.625 39.8746 6.625 38.7917V10.2083C6.625 9.12537 7.05521 8.08675 7.82098 7.32098C8.58675 6.55521 9.62537 6.125 10.7083 6.125H39.2917ZM38.2708 37.7708V26.95C38.2708 25.1848 37.5696 23.4918 36.3214 22.2436C35.0732 20.9954 33.3802 20.2942 31.615 20.2942C29.8796 20.2942 27.8583 21.3558 26.8783 22.9483V20.6821H21.1821V37.7708H26.8783V27.7054C26.8783 26.1333 28.1442 24.8471 29.7163 24.8471C30.4743 24.8471 31.2014 25.1482 31.7374 25.6843C32.2734 26.2203 32.5746 26.9473 32.5746 27.7054V37.7708H38.2708ZM14.5467 17.4767C15.4564 17.4767 16.3288 17.1153 16.972 16.472C17.6153 15.8288 17.9767 14.9564 17.9767 14.0467C17.9767 12.1479 16.4454 10.5963 14.5467 10.5963C13.6316 10.5963 12.7539 10.9598 12.1069 11.6069C11.4598 12.2539 11.0963 13.1316 11.0963 14.0467C11.0963 15.9454 12.6479 17.4767 14.5467 17.4767ZM17.3846 37.7708V20.6821H11.7292V37.7708H17.3846Z" fill="#6D6D6D"/>
</svg>