<svg width="90" height="90" viewBox="0 0 90 90" fill="none" xmlns="http://www.w3.org/2000/svg">
  <path fill-rule="evenodd" clip-rule="evenodd" d="M45.2226 89.5226C20.6828 89.5226 0.699951 69.5398 0.699951 45C0.699951 20.4601 20.6828 0.477295 45.2226 0.477295C56.0914 0.477295 66.5673 4.43195 74.6861 11.6341C74.8957 11.8175 74.8957 12.1056 74.7385 12.3151C74.5552 12.5246 74.2671 12.5246 74.0576 12.3675C66.0959 5.32241 55.8557 1.47251 45.2226 1.47251C21.2066 1.47251 1.66897 21.0101 1.66897 45.0261C1.66897 69.0422 21.2066 88.5798 45.2226 88.5798C45.4845 88.5798 45.694 88.7893 45.694 89.0512C45.694 89.3131 45.4845 89.5226 45.2226 89.5226ZM20.0028 38.8499V38.85V38.85V38.8501V38.8502V38.8503V38.8503V38.8504V38.8505V38.8505V38.8506V38.8507V38.8507V38.8508V38.8509V38.8509V38.851V38.8511V38.8511V38.8512V38.8513C20.0502 40.7858 20.0981 42.7358 20.0543 44.6857C20.0281 45.419 20.0281 46.1523 20.0281 46.8856C20.0019 49.3213 19.9495 51.7569 19.6614 54.1664C19.609 54.4807 19.609 54.7949 19.609 55.1092C19.609 55.3711 19.4781 55.5282 19.2424 55.633C19.2238 55.6392 19.2038 55.6454 19.1827 55.6519C19.1144 55.673 19.0343 55.6977 18.9543 55.7378C18.8626 55.7901 18.771 55.836 18.6793 55.8818C18.5876 55.9276 18.496 55.9735 18.4043 56.0258C18.09 56.2092 18.0377 56.4187 18.221 56.7068C18.2995 56.8901 18.4043 57.0473 18.5353 57.1782C19.3471 58.0948 20.29 58.8805 21.3638 59.4567C22.1756 59.9019 22.9875 60.2948 23.878 60.5829C24.428 60.7662 24.9518 60.9233 25.5017 61.0805C26.5231 61.3686 27.5969 61.5257 28.6445 61.6567C30.1635 61.84 31.7087 61.9447 33.2277 61.7876C34.0396 61.6828 34.8777 61.5519 35.6896 61.3686C36.3967 61.2114 37.0514 60.9495 37.7062 60.6614C38.78 60.19 39.8014 59.5877 40.6918 58.8282C42.0013 57.7282 43.1013 56.4449 43.9394 54.9521C45.0655 52.9878 45.7465 50.8665 46.1131 48.6403C46.3226 47.3832 46.4012 46.0999 46.375 44.8166C46.3645 44.5859 46.3624 44.3511 46.3603 44.1153V44.1153V44.1152V44.1152V44.1151V44.115V44.115V44.1149V44.1149V44.1148V44.1148V44.1147V44.1146V44.1146V44.1145V44.1145V44.1144V44.1144V44.1143V44.1142V44.1142C46.3572 43.7615 46.354 43.407 46.3226 43.0619C46.1655 41.7786 45.956 40.5215 45.6155 39.2906C45.1703 37.7192 44.5417 36.2264 43.6513 34.8383C42.918 33.6859 42.1061 32.6384 41.0847 31.7479C39.4085 30.3337 37.5229 29.2861 35.3753 28.7361C35.2668 28.709 35.1614 28.6725 35.057 28.6363C34.859 28.5677 34.6644 28.5004 34.4587 28.5004C34.0658 28.4742 33.673 28.3956 33.2802 28.317L33.2801 28.317L32.7301 28.2385C30.8968 28.0551 29.0897 28.2385 27.2827 28.5527C26.1303 28.7623 25.0041 29.1027 23.878 29.4694C22.4375 29.9408 21.1542 30.7003 19.9233 31.5908C19.6614 31.7741 19.5567 31.9836 19.5828 32.2717C19.5893 32.3883 19.5942 32.505 19.5991 32.6212C19.6138 32.9748 19.6285 33.3247 19.6876 33.6598C19.8971 34.9954 19.9495 36.3573 19.9757 37.7192C19.9842 38.0954 19.9935 38.4724 20.0028 38.8499ZM24.9518 46.7416C24.9714 45.8838 24.991 45.0261 25.0041 44.1619C25.0041 43.0586 24.9778 41.9553 24.9515 40.8554C24.9254 39.762 24.8994 38.6719 24.8994 37.5882C24.8732 36.724 24.7946 35.8335 24.6899 34.9692C24.6899 34.861 24.6829 34.7597 24.6761 34.6618C24.6698 34.5703 24.6637 34.4817 24.6637 34.3931C24.6375 34.0788 24.6178 33.7645 24.5982 33.4502C24.5786 33.136 24.5589 32.8217 24.5327 32.5074C24.5065 32.1669 24.6113 31.9312 24.8994 31.7741C24.9742 31.7325 25.0517 31.6857 25.1309 31.6377C25.3014 31.5347 25.4801 31.4266 25.6589 31.3551C26.4708 31.0146 27.3088 30.7003 28.1731 30.5694C28.3597 30.5364 28.5417 30.4897 28.7249 30.4427C28.9788 30.3775 29.235 30.3117 29.5088 30.2813C30.3469 30.1765 31.2111 30.1765 32.023 30.3075C33.8039 30.5956 35.4015 31.2765 36.7634 32.5336C38.0205 33.7121 38.9633 35.1002 39.6966 36.6454C40.3252 38.0335 40.7704 39.4739 41.0585 40.9405C41.3204 42.25 41.4251 43.5857 41.4513 44.9214C41.4663 45.1608 41.4471 45.4003 41.4278 45.6397C41.4134 45.8193 41.399 45.9989 41.399 46.1785C41.399 47.3057 41.2486 48.3828 41.0949 49.4833V49.4834V49.4834V49.4834V49.4835V49.4835V49.4835L41.0847 49.557C41.0323 50.0284 40.9537 50.4998 40.8228 50.9712C40.4823 52.2021 40.1157 53.4331 39.5657 54.5854C39.0419 55.633 38.4395 56.6282 37.6276 57.4925C36.1086 59.09 34.2753 59.8234 32.1016 59.771C30.2945 59.7186 28.4874 59.4567 26.7589 58.8282C25.947 58.5401 25.2398 58.1472 24.5851 57.5972C24.3756 57.4139 24.297 57.2306 24.3232 56.9425C24.3494 56.7199 24.369 56.4907 24.3887 56.2616C24.4083 56.0324 24.428 55.8032 24.4542 55.5806C24.4819 55.2634 24.5103 54.9467 24.5386 54.6304L24.5386 54.6301L24.5387 54.6298L24.5387 54.6295L24.5387 54.6291L24.5388 54.6283C24.6975 52.8568 24.8549 51.0985 24.8994 49.3213C24.9125 48.457 24.9321 47.5993 24.9518 46.7416ZM72.1516 34.5764C72.2272 33.6859 72.3029 32.7955 72.3553 31.905V29.4694C72.3553 29.1027 72.1981 28.8408 71.8577 28.6837C71.5696 28.5527 71.2553 28.448 70.941 28.448C70.4696 28.4218 70.0244 28.4218 69.553 28.448C69.0292 28.4742 68.5316 28.6313 68.0601 28.867C67.6411 29.0765 67.4316 29.3646 67.4316 29.8622C67.4054 31.486 67.3268 33.136 67.2483 34.7597C67.1761 35.7457 67.0819 36.7096 66.9859 37.6919L66.9602 37.9549C66.9078 38.4523 66.8293 38.9759 66.7507 39.4995L66.7507 39.4996L66.7506 39.5001C66.7316 39.659 66.7141 39.8179 66.6966 39.9765L66.6964 39.9776C66.6419 40.4718 66.5878 40.9625 66.4888 41.4381C66.4147 41.8143 66.343 42.1905 66.2715 42.5664L66.2714 42.5667C66.0142 43.918 65.7576 45.2658 65.3888 46.5975C65.3377 46.7813 65.2877 46.9641 65.2378 47.146C65.032 47.8977 64.8299 48.6357 64.5769 49.3736C64.0531 50.8403 63.5031 52.3069 62.796 53.7211C62.0365 55.2402 61.1984 56.6806 60.1508 57.9901C59.7842 58.4353 59.7056 58.3306 59.4961 57.9639C58.8151 56.8639 58.2913 55.6854 57.8461 54.4545C57.1128 52.4902 56.4842 50.4736 55.9081 48.4308C55.8459 48.2029 55.7856 47.9732 55.7251 47.743C55.5564 47.1005 55.3869 46.4551 55.1748 45.838C54.8867 44.9476 54.6772 44.0309 54.4676 43.1143C54.3629 42.6516 54.2523 42.1918 54.1417 41.732C53.9206 40.8125 53.6994 39.8929 53.5248 38.9501C53.42 38.4001 53.3087 37.8436 53.1974 37.287L53.1972 37.2858L53.1971 37.2856L53.1971 37.2854L53.1971 37.2851L53.197 37.2849L53.197 37.2846L53.1969 37.2844L53.1969 37.2842L53.1968 37.2839L53.1968 37.2837L53.1967 37.2834L53.1967 37.2832L53.1966 37.283L53.1966 37.2827L53.1966 37.2825L53.1965 37.2822L53.1965 37.282L53.1964 37.2817L53.1964 37.2815L53.1963 37.2813C53.0854 36.7267 52.9745 36.1721 52.8701 35.624C52.6867 34.655 52.5296 33.6859 52.3986 32.7169C52.3653 32.49 52.3285 32.2648 52.2918 32.0401C52.1845 31.3826 52.0777 30.7286 52.0582 30.0456C52.0058 29.2075 51.8225 28.998 50.9844 28.8408C49.963 28.6575 48.994 28.8146 48.0249 29.1551C47.7631 29.2599 47.5273 29.3908 47.344 29.6003C47.1345 29.8099 47.0297 30.0456 47.0821 30.3337C47.2149 30.8814 47.2741 31.4397 47.3329 31.9952L47.3329 31.9954V31.9954V31.9955V31.9955V31.9955V31.9956V31.9956V31.9956V31.9957V31.9957V31.9957V31.9958V31.9958V31.9958V31.9959V31.9959V31.9959V31.996V31.996V31.996C47.3669 32.3167 47.4008 32.6364 47.4488 32.9526C47.5231 33.4092 47.5888 33.87 47.6546 34.3316L47.6546 34.3318C47.7512 35.0089 47.848 35.6877 47.9726 36.3573C48.0499 36.7793 48.1216 37.2014 48.1933 37.6229L48.1933 37.623L48.1933 37.623L48.1933 37.6231L48.1933 37.6231L48.1933 37.6232L48.1933 37.6232L48.1933 37.6233L48.1934 37.6234L48.1934 37.6234L48.1934 37.6235L48.1934 37.6235L48.1934 37.6236L48.1934 37.6236L48.1934 37.6237L48.1934 37.6238L48.1934 37.6238L48.1935 37.6239L48.1935 37.6239L48.1935 37.624L48.1935 37.6241C48.3885 38.7716 48.5828 39.9155 48.8892 41.0453C49.0369 41.5769 49.1512 42.1251 49.2652 42.6712C49.3533 43.0937 49.4411 43.5149 49.544 43.9262C49.6749 44.4238 49.8124 44.9148 49.9499 45.4059C50.0874 45.8969 50.2249 46.388 50.3558 46.8856C50.5028 47.3708 50.6416 47.8642 50.7814 48.3612L50.7814 48.3613L50.7814 48.3614L50.7814 48.3614L50.7815 48.3615L50.7815 48.3616L50.7815 48.3616L50.7815 48.3617L50.7815 48.3618L50.7816 48.3618L50.7816 48.3619L50.7816 48.362L50.7817 48.3625C50.8909 48.7504 51.0006 49.1406 51.1153 49.5308C51.6129 51.1807 52.2939 52.7521 53.001 54.3235C53.6296 55.6854 54.3367 56.9687 55.1486 58.2258C55.5152 58.802 55.9081 59.3258 56.3271 59.8496C56.7462 60.3734 57.2699 60.7924 57.8461 61.1329C58.2913 61.3948 58.7628 61.5257 59.2866 61.4995C60.177 61.4733 61.0151 61.1852 61.7746 60.74C62.9269 60.0591 63.8174 59.1424 64.6293 58.121C65.9126 56.4711 66.8554 54.6378 67.7459 52.7521C68.4268 51.2855 69.003 49.7927 69.5006 48.2475C69.972 46.807 70.3648 45.3666 70.7315 43.9C70.7734 43.7114 70.8069 43.5229 70.8404 43.3343C70.8907 43.0514 70.941 42.7686 71.0196 42.4857C71.2899 41.4945 71.444 40.484 71.5985 39.4707L71.5989 39.468C71.6238 39.3041 71.6488 39.1402 71.6743 38.9763C71.8315 37.9549 71.9624 36.9335 72.041 35.9121C72.0759 35.4669 72.1137 35.0216 72.1516 34.5764ZM49.4652 84.2323L47.4748 84.4418L47.9986 88.9727L49.989 88.7631C50.4605 88.7108 50.8795 88.5798 51.2462 88.3441C51.5866 88.1084 51.8485 87.8203 52.0318 87.4537C52.2152 87.087 52.2676 86.668 52.2152 86.2227C52.1628 85.7775 52.0057 85.3847 51.7699 85.0704C51.5342 84.7561 51.1938 84.5204 50.8009 84.3633C50.3819 84.2323 49.9628 84.1799 49.4652 84.2323ZM50.6962 87.7941C50.4605 87.9513 50.1724 88.056 49.8319 88.0822L48.7319 88.2132L48.3915 85.0966L49.4914 84.9656C49.8057 84.9394 50.0938 84.9918 50.3819 85.0704C50.67 85.149 50.8795 85.3323 51.0366 85.5418C51.1938 85.7775 51.2723 86.0394 51.3247 86.3537C51.3771 86.668 51.3247 86.9299 51.22 87.1918C51.1152 87.4275 50.9319 87.637 50.6962 87.7941ZM56.7723 86.4323L54.5462 86.9823L54.3629 88.1084L53.5248 88.3179L54.4153 83.3681L55.2271 83.1585L58.3437 87.1132L57.4795 87.3227L56.7723 86.4323ZM56.3271 85.8561L54.9914 84.1276L54.651 86.2751L56.3271 85.8561ZM63.4769 85.1228L61.7746 80.8801L60.9889 81.1944L62.1413 84.0753L58.6318 82.1372L57.9771 82.3991L59.6794 86.6419L60.4651 86.3276L59.3128 83.4467L62.8222 85.3848L63.4769 85.1228ZM63.1364 80.1729L63.8959 79.7801L66.0173 83.8395L65.2578 84.2324L63.1364 80.1729ZM70.6528 81.011L70.2599 80.4086L68.1124 81.8229L67.4314 80.7491L69.2909 79.5443L68.8981 78.9682L67.0386 80.1729L66.3839 79.1777L68.479 77.8158L68.0862 77.2135L65.2839 79.0205L67.7719 82.8705L70.6528 81.011ZM69.16 76.4016L69.8148 75.8516L72.2504 78.8372L74.1099 77.3182L74.5551 77.8682L72.0409 79.9372L69.16 76.4016ZM75.3932 75.6159L76.9907 73.966L78.0383 74.385L78.6669 73.7303L73.9265 72.0541L73.3504 72.6565L75.236 77.3183L75.8384 76.6897L75.3932 75.6159ZM74.267 72.9446L76.3098 73.7041L75.1051 74.9612L74.267 72.9446ZM79.5312 64.6424L82.2549 68.8328L81.7835 69.5399L76.8598 68.7018L77.3574 67.9423L81.1549 68.6233L79.0597 65.4019L79.5312 64.6424ZM80.2645 63.1234L79.8717 63.8829L83.9049 66.0304L84.2978 65.2709L80.2645 63.1234ZM82.543 58.0163L86.7858 59.7448L86.5239 60.3996L82.7002 61.5781L85.581 62.7567L85.2668 63.5424L81.024 61.8138L81.2859 61.1591L85.1096 59.9806L82.2288 58.802L82.543 58.0163ZM86.3929 57.4663C86.7858 57.3616 87.1262 57.1521 87.4143 56.8378C87.7024 56.5235 87.9119 56.1568 88.0952 55.7116C88.2 55.345 88.2262 55.0045 88.1738 54.664C88.1214 54.3236 87.9905 54.0093 87.8072 53.7474L87.1524 54.1402C87.4143 54.5331 87.4929 54.9783 87.3619 55.4497C87.2834 55.7378 87.1262 55.9997 86.9429 56.2092C86.7334 56.4187 86.4977 56.5497 86.2358 56.6283C85.9477 56.7068 85.6596 56.7068 85.3715 56.6283C85.0572 56.5497 84.8215 56.4187 84.612 56.2092C84.4025 56.0259 84.2715 55.7902 84.193 55.5021C84.1144 55.2402 84.1144 54.9521 84.193 54.6378C84.3239 54.1664 84.612 53.826 85.031 53.5902L84.6644 52.9355C84.3501 53.0926 84.1144 53.3022 83.9049 53.5641C83.6954 53.826 83.5644 54.1402 83.4597 54.5069C83.3287 54.9521 83.3287 55.3712 83.4335 55.7902C83.5382 56.2092 83.7477 56.5759 84.0358 56.864C84.3239 57.1521 84.6906 57.3616 85.1358 57.4663C85.581 57.5711 86.0001 57.5711 86.3929 57.4663ZM88.4358 48.7975L89.1429 48.9023L88.6977 52.3069L84.1407 51.7046L84.5597 48.3785L85.2668 48.4571L84.9525 50.9189L86.1311 51.076L86.4192 48.8761L87.1263 48.9547L86.8382 51.1546L88.0953 51.3117L88.4358 48.7975ZM89.3 43.0357L84.7168 42.9572L84.6906 43.7952L87.781 43.8476L84.6382 46.3357V47.0428L89.2214 47.1213L89.2476 46.2833L86.1572 46.2309L89.3 43.7429V43.0357ZM87.9381 37.5098L88.6453 37.4312L89.1429 41.3073L88.5667 41.3859L84.9525 39.1336L85.293 41.7526L84.5858 41.8311L84.1144 38.086L84.6906 38.0074L88.3048 40.2597L87.9381 37.5098ZM83.6692 36.0693L83.8525 36.9074L88.331 35.9122L88.1476 35.0741L83.6692 36.0693ZM82.0716 30.7003L86.4191 29.2599L86.6286 29.9146L84.4811 33.2931L87.4405 32.3241L87.7024 33.136L83.3549 34.5764L83.1454 33.9217L85.2929 30.5432L82.3335 31.5122L82.0716 30.7003ZM81.1026 28.5266L81.443 29.3123L85.6334 27.4529L85.2929 26.6672L81.1026 28.5266ZM77.1741 21.7697L81.024 19.2555L81.4954 19.9626L79.8454 21.0364L81.1287 23.0268L82.7787 21.953L83.2501 22.6601L79.4002 25.1744L78.9288 24.4672L80.5264 23.4458L79.2431 21.4554L77.6455 22.4768L77.1741 21.7697ZM77.3836 16.9246L77.7764 15.327L77.1741 14.6199L76.7288 16.4008C76.4408 16.2437 76.1265 16.1913 75.8384 16.2175C75.5503 16.2437 75.2622 16.3746 75.0003 16.6103C74.7646 16.846 74.5813 17.0817 74.5027 17.3698C74.4241 17.6579 74.4241 17.946 74.5289 18.2603C74.6075 18.5746 74.7908 18.8888 75.0527 19.1769L76.2836 20.6174L79.7669 17.6317L79.2169 16.977L78.1955 17.8412L77.5145 17.0556L77.3836 16.9246ZM75.6027 18.7055C75.367 18.4436 75.236 18.1555 75.236 17.9198C75.236 17.6841 75.3408 17.4484 75.5503 17.2651C75.786 17.0555 76.0217 16.977 76.2574 17.0294C76.4931 17.0556 76.755 17.2127 76.9907 17.5008L77.6455 18.2603L76.2574 19.465L75.6027 18.7055Z" fill="white"/>
</svg>