<svg width="70" height="70" viewBox="0 0 70 70" fill="#FFFFFF" xmlns="http://www.w3.org/2000/svg">
<path fill-rule="evenodd" clip-rule="evenodd" d="M35.1759 70C15.7878 70 0 54.2912 0 35C0 15.7088 15.7878 0 35.1759 0C43.763 0 52.0396 3.10882 58.4541 8.77059C58.6196 8.91471 58.6196 9.14118 58.4954 9.30588C58.3506 9.47059 58.123 9.47059 57.9575 9.34706C51.6672 3.80882 43.5767 0.782354 35.1759 0.782354C16.2016 0.782354 0.765593 16.1412 0.765593 35.0206C0.765593 53.9 16.2016 69.2588 35.1759 69.2588C35.3828 69.2588 35.5483 69.4235 35.5483 69.6294C35.5483 69.8353 35.3828 70 35.1759 70ZM15.2505 30.1653C15.288 31.6865 15.3258 33.2197 15.2912 34.7529C15.2705 35.3294 15.2705 35.9059 15.2705 36.4823C15.2498 38.397 15.2084 40.3118 14.9808 42.2059C14.9395 42.4529 14.9395 42.7 14.9395 42.947C14.9395 43.1529 14.836 43.2765 14.6498 43.3588C14.6351 43.3637 14.6193 43.3685 14.6026 43.3737C14.5486 43.3903 14.4854 43.4097 14.4222 43.4412C14.3497 43.4823 14.2773 43.5184 14.2049 43.5544C14.1325 43.5904 14.0601 43.6265 13.9876 43.6676C13.7393 43.8118 13.6979 43.9765 13.8428 44.2029C13.9049 44.347 13.9876 44.4706 14.0911 44.5735C14.7325 45.2941 15.4774 45.9118 16.3258 46.3647C16.9672 46.7147 17.6087 47.0235 18.3122 47.25C18.7467 47.3941 19.1606 47.5176 19.5951 47.6412C20.4021 47.8676 21.2504 47.9912 22.0781 48.0941C23.2782 48.2382 24.499 48.3206 25.6991 48.197C26.3406 48.1147 27.0027 48.0118 27.6442 47.8676C28.2028 47.7441 28.7201 47.5382 29.2374 47.3118C30.0858 46.9412 30.8928 46.4676 31.5963 45.8706C32.6309 45.0059 33.4999 43.997 34.162 42.8235C35.0518 41.2794 35.5898 39.6118 35.8795 37.8618C36.045 36.8735 36.1071 35.8647 36.0864 34.8559C36.0781 34.6745 36.0764 34.4899 36.0748 34.3046V34.3046C36.0723 34.027 36.0698 33.748 36.045 33.4765C35.9208 32.4676 35.7553 31.4794 35.4863 30.5118C35.1346 29.2765 34.638 28.1029 33.9344 27.0118C33.3551 26.1059 32.7136 25.2823 31.9066 24.5823C30.5824 23.4706 29.0926 22.647 27.3959 22.2147C27.3101 22.1934 27.2269 22.1647 27.1444 22.1363C26.9879 22.0824 26.8342 22.0294 26.6716 22.0294C26.3613 22.0088 26.0509 21.947 25.7406 21.8853L25.7405 21.8853L25.306 21.8235C23.8576 21.6794 22.4298 21.8235 21.0021 22.0706C20.0917 22.2353 19.2019 22.5029 18.3122 22.7912C17.1742 23.1618 16.1603 23.7588 15.1878 24.4588C14.9808 24.6029 14.8981 24.7676 14.9188 24.9941C14.9239 25.0858 14.9277 25.1775 14.9316 25.2689C14.9432 25.5468 14.9548 25.8219 15.0015 26.0853C15.1671 27.1353 15.2084 28.2059 15.2291 29.2765C15.2359 29.5722 15.2432 29.8686 15.2505 30.1653ZM19.1606 36.3691V36.3691V36.369V36.369V36.369V36.3689V36.3689V36.3689V36.3688V36.3688V36.3688V36.3687V36.3687V36.3687V36.3686V36.3686V36.3686V36.3685V36.3685V36.3685V36.3684C19.1761 35.6944 19.1916 35.0203 19.2019 34.3412C19.2019 33.4744 19.1811 32.6076 19.1604 31.7435V31.7434V31.7433V31.7432V31.7432V31.7431V31.743V31.7429V31.7428V31.7428V31.7427V31.7426V31.7425V31.7424V31.7424V31.7423V31.7422V31.7421V31.742V31.742V31.7419V31.7418V31.7417V31.7417V31.7416V31.7415V31.7415V31.7414V31.7413V31.7413V31.7412V31.7411V31.7411V31.741V31.7409V31.7408V31.7408V31.7407V31.7406V31.7406V31.7405C19.1397 30.8814 19.1192 30.0249 19.1192 29.1735C19.0985 28.4941 19.0364 27.7941 18.9536 27.1147C18.9536 27.0296 18.9481 26.9501 18.9428 26.8731V26.8731V26.8731V26.873L18.9428 26.873L18.9427 26.8727L18.9427 26.8725C18.9378 26.8007 18.933 26.7312 18.933 26.6618C18.9123 26.4148 18.8967 26.1679 18.8812 25.9209V25.9209V25.9209V25.9209V25.9208V25.9208V25.9208V25.9208V25.9208V25.9208V25.9207V25.9207V25.9207V25.9207V25.9207V25.9207V25.9206V25.9206V25.9206V25.9206V25.9206C18.8657 25.6735 18.8502 25.4265 18.8295 25.1794C18.8088 24.9118 18.8916 24.7265 19.1192 24.6029C19.1783 24.5702 19.2395 24.5334 19.3021 24.4957C19.4368 24.4147 19.578 24.3297 19.7192 24.2735C20.3607 24.0059 21.0228 23.7588 21.7056 23.6559C21.8531 23.63 21.9969 23.5932 22.1416 23.5563L22.1416 23.5563C22.3422 23.505 22.5446 23.4533 22.7609 23.4294C23.4231 23.347 24.1059 23.347 24.7473 23.45C26.1544 23.6765 27.4165 24.2118 28.4925 25.2C29.4857 26.1265 30.2306 27.2176 30.81 28.4323C31.3066 29.5235 31.6583 30.6559 31.886 31.8088C32.0929 32.8382 32.1756 33.8882 32.1963 34.9382C32.2082 35.1265 32.193 35.3147 32.1777 35.5029L32.1777 35.5031C32.1663 35.6442 32.1549 35.7853 32.1549 35.9265C32.1549 36.8126 32.0361 37.6594 31.9147 38.5246L31.9147 38.5247L31.9066 38.5823C31.8653 38.9529 31.8032 39.3235 31.6997 39.6941C31.4307 40.6618 31.1411 41.6294 30.7065 42.5353C30.2927 43.3588 29.8168 44.1412 29.1753 44.8206C27.9752 46.0765 26.5268 46.6529 24.8094 46.6118C23.3817 46.5706 21.9539 46.3647 20.5883 45.8706C19.9468 45.6441 19.3882 45.3353 18.8709 44.9029C18.7053 44.7588 18.6433 44.6147 18.664 44.3882C18.6847 44.2132 18.7002 44.0331 18.7157 43.8529V43.8529C18.7312 43.6727 18.7467 43.4926 18.7674 43.3176C18.7894 43.068 18.8118 42.8188 18.8342 42.57L18.8343 42.569L18.8343 42.5689C18.9596 41.1764 19.0841 39.7941 19.1192 38.397C19.1295 37.7179 19.145 37.0439 19.1605 36.3698L19.1606 36.3691ZM56.4516 26.8059C56.5114 26.1059 56.5711 25.4059 56.6125 24.7059V22.7912C56.6125 22.5029 56.4884 22.297 56.2194 22.1735C55.9918 22.0706 55.7435 21.9882 55.4952 21.9882C55.1227 21.9676 54.771 21.9676 54.3985 21.9882C53.9847 22.0088 53.5915 22.1323 53.2191 22.3176C52.888 22.4823 52.7225 22.7088 52.7225 23.1C52.7018 24.3765 52.6397 25.6735 52.5776 26.95C52.5206 27.7251 52.4462 28.4828 52.3703 29.2551L52.35 29.4618C52.3087 29.8527 52.2466 30.2642 52.1846 30.6757L52.1846 30.6758L52.1846 30.6759L52.1845 30.6765C52.1696 30.8 52.1559 30.9236 52.1423 31.0469L52.1422 31.047L52.1422 31.0473L52.1422 31.0476L52.1421 31.0479L52.1421 31.0484L52.142 31.0488L52.142 31.0493L52.1419 31.0498L52.1418 31.0505L52.1418 31.0512L52.1417 31.0519C52.0986 31.4404 52.0559 31.8261 51.9776 32.2C51.919 32.4957 51.8625 32.7915 51.8059 33.087C51.6027 34.1493 51.3999 35.2089 51.1085 36.2559C51.069 36.3974 51.0302 36.5383 50.9916 36.6785L50.9896 36.6858L50.9893 36.687C50.8267 37.2779 50.667 37.8581 50.4671 38.4382C50.0533 39.5912 49.6187 40.7441 49.0601 41.8559C48.46 43.05 47.7979 44.1823 46.9702 45.2118C46.6805 45.5618 46.6184 45.4794 46.4529 45.1912C45.9149 44.3265 45.5011 43.4 45.1493 42.4323C44.57 40.8882 44.0733 39.3029 43.6181 37.697C43.5691 37.5182 43.5215 37.338 43.4739 37.1575L43.4738 37.1573L43.4738 37.1571L43.4738 37.1569L43.4737 37.1568L43.4737 37.1566L43.4736 37.1564L43.4736 37.1563L43.4736 37.1563L43.4735 37.1562L43.4735 37.1561L43.4735 37.156L43.4735 37.1559L43.4735 37.1559L43.4734 37.1558L43.4734 37.1557L43.4734 37.1556L43.4734 37.1555L43.4733 37.1555L43.4733 37.1554L43.4733 37.1553L43.4733 37.1552L43.4733 37.1551L43.4732 37.1551L43.4732 37.155L43.4732 37.1549L43.4732 37.1548C43.34 36.6503 43.2062 36.1434 43.0388 35.6588C42.8112 34.9588 42.6456 34.2382 42.4801 33.5176C42.3973 33.1539 42.31 32.7925 42.2226 32.4311L42.2225 32.4309C42.0478 31.708 41.8731 30.9852 41.7352 30.2441C41.6524 29.8118 41.5645 29.3743 41.4765 28.9368C41.3886 28.4993 41.3007 28.0618 41.2179 27.6294C41.0731 26.8676 40.9489 26.1059 40.8454 25.3441C40.8191 25.1657 40.79 24.9887 40.761 24.812L40.761 24.8119C40.6762 24.2951 40.5919 23.7811 40.5765 23.2441C40.5351 22.5853 40.3902 22.4206 39.7281 22.297C38.9211 22.1529 38.1555 22.2765 37.3899 22.5441C37.183 22.6265 36.9968 22.7294 36.8519 22.8941C36.6864 23.0588 36.6036 23.2441 36.645 23.4706C36.7499 23.9008 36.7965 24.3392 36.8429 24.7755L36.8429 24.7755L36.843 24.7756L36.843 24.7756L36.843 24.7757L36.843 24.7758L36.843 24.7758L36.843 24.7759L36.843 24.776L36.843 24.776L36.8431 24.7761L36.8431 24.7761L36.8431 24.7762L36.8431 24.7763L36.8431 24.7763L36.8431 24.7764L36.8431 24.7765L36.8431 24.7765L36.8431 24.7766L36.8432 24.7766L36.8432 24.7767C36.87 25.029 36.8968 25.2806 36.9347 25.5294C36.9934 25.888 37.0453 26.2499 37.0972 26.6125L37.0973 26.613L37.0974 26.6136C37.1736 27.1458 37.2501 27.6795 37.3485 28.2059C37.4097 28.5377 37.4663 28.8694 37.5229 29.2008C37.677 30.1033 37.8306 31.0027 38.0728 31.8912C38.1894 32.3091 38.2798 32.74 38.3698 33.1693C38.4394 33.5015 38.5088 33.8326 38.59 34.1559C38.6935 34.5471 38.8021 34.9331 38.9108 35.3191C39.0194 35.7051 39.128 36.0912 39.2315 36.4823C39.3476 36.8637 39.4572 37.2515 39.5677 37.6421L39.5678 37.6425L39.5679 37.6429L39.568 37.6432L39.568 37.6435L39.5681 37.6438L39.5682 37.6441L39.5683 37.6444L39.5684 37.6447L39.5684 37.6449L39.5685 37.6452L39.5686 37.6455L39.5687 37.6458L39.5688 37.6461L39.5688 37.6464L39.5689 37.6467L39.569 37.6469L39.5691 37.6472L39.5692 37.6475L39.5692 37.6478L39.5693 37.6481L39.5694 37.6484L39.5695 37.6487C39.6552 37.9519 39.7414 38.2568 39.8316 38.5618C40.2247 39.8588 40.7627 41.0941 41.3214 42.3294C41.818 43.4 42.3766 44.4088 43.0181 45.397C43.3078 45.85 43.6181 46.2617 43.9492 46.6735C44.2803 47.0853 44.6941 47.4147 45.1493 47.6823C45.5011 47.8882 45.8735 47.9912 46.2874 47.9706C46.9909 47.95 47.653 47.7235 48.2531 47.3735C49.1635 46.8382 49.867 46.1176 50.5085 45.3147C51.5224 44.0176 52.2673 42.5765 52.9708 41.0941C53.5088 39.9412 53.964 38.7676 54.3571 37.5529C54.7296 36.4206 55.04 35.2882 55.3296 34.1353C55.3627 33.987 55.3892 33.8388 55.4157 33.6906C55.4554 33.4682 55.4952 33.2459 55.5572 33.0235C55.7708 32.2444 55.8925 31.45 56.0146 30.6534V30.6534L56.0146 30.6533L56.0147 30.6525C56.0345 30.5232 56.0543 30.394 56.0745 30.2647C56.1987 29.4618 56.3022 28.6588 56.3642 27.8559C56.3918 27.5059 56.4217 27.1559 56.4516 26.8059ZM38.5279 65.8412L36.9553 66.0059L37.3691 69.5677L38.9417 69.403C39.3141 69.3618 39.6452 69.2589 39.9349 69.0736C40.2039 68.8883 40.4108 68.6618 40.5556 68.3736C40.7005 68.0853 40.7419 67.7559 40.7005 67.4059C40.6591 67.0559 40.535 66.7471 40.3487 66.5C40.1625 66.253 39.8935 66.0677 39.5831 65.9441C39.2521 65.8412 38.921 65.8 38.5279 65.8412ZM39.5004 68.6412C39.3141 68.7647 39.0865 68.8471 38.8175 68.8677L37.9485 68.9706L37.6795 66.5206L38.5485 66.4177C38.7968 66.3971 39.0245 66.4383 39.2521 66.5C39.4797 66.5618 39.6452 66.7059 39.7694 66.8706C39.8935 67.0559 39.9556 67.2618 39.997 67.5088C40.0384 67.7559 39.997 67.9618 39.9142 68.1677C39.8314 68.353 39.6866 68.5177 39.5004 68.6412ZM44.301 67.5706L42.5422 68.003L42.3973 68.8883L41.7352 69.053L42.4387 65.1618L43.0802 64.9971L45.5425 68.1059L44.8596 68.2706L44.301 67.5706ZM43.9492 67.1177L42.8939 65.7589L42.6249 67.4471L43.9492 67.1177ZM49.598 66.5413L48.2531 63.206L47.6323 63.453L48.5428 65.7177L45.7701 64.1942L45.2528 64.4001L46.5977 67.7354L47.2185 67.4883L46.3081 65.2236L49.0807 66.7471L49.598 66.5413ZM49.329 62.6501L49.9291 62.3412L51.6051 65.5324L51.005 65.8412L49.329 62.6501ZM55.2674 63.3089L54.9571 62.8353L53.2603 63.9471L52.7224 63.103L54.1915 62.1559L53.8811 61.703L52.412 62.65L51.8947 61.8677L53.55 60.7971L53.2397 60.3236L51.0256 61.7441L52.9914 64.7706L55.2674 63.3089ZM54.0881 59.6853L54.6054 59.253L56.5297 61.6L57.9988 60.4059L58.3506 60.8383L56.3642 62.4648L54.0881 59.6853ZM59.0127 59.0677L60.2748 57.7707L61.1025 58.1001L61.5991 57.5854L57.8539 56.2677L57.3987 56.7412L58.8885 60.4059L59.3644 59.9118L59.0127 59.0677ZM58.1229 56.9677L59.7369 57.5648L58.785 58.553L58.1229 56.9677ZM62.282 50.4412L64.4339 53.7354L64.0614 54.2912L60.1714 53.6324L60.5645 53.0354L63.5648 53.5707L61.9095 51.0383L62.282 50.4412ZM62.8614 49.2471L62.551 49.8442L65.7375 51.5324L66.0479 50.9353L62.8614 49.2471ZM64.6615 45.2324L68.0136 46.5912L67.8067 47.1059L64.7857 48.0324L67.0618 48.9588L66.8135 49.5765L63.4614 48.2177L63.6683 47.703L66.6893 46.7765L64.4132 45.85L64.6615 45.2324ZM67.7032 44.8C68.0136 44.7177 68.2826 44.553 68.5102 44.3059C68.7378 44.0588 68.9033 43.7706 69.0482 43.4206C69.1309 43.1324 69.1516 42.8647 69.1102 42.5971C69.0689 42.3294 68.9654 42.0824 68.8206 41.8765L68.3033 42.1853C68.5102 42.4941 68.5723 42.8441 68.4688 43.2147C68.4067 43.4412 68.2826 43.6471 68.1377 43.8118C67.9722 43.9765 67.786 44.0794 67.5791 44.1412C67.3514 44.203 67.1238 44.203 66.8962 44.1412C66.6479 44.0794 66.4617 43.9765 66.2962 43.8118C66.1306 43.6677 66.0272 43.4824 65.9651 43.2559C65.903 43.05 65.903 42.8236 65.9651 42.5765C66.0686 42.2059 66.2962 41.9383 66.6272 41.753L66.3376 41.2383C66.0893 41.3618 65.903 41.5265 65.7375 41.7324C65.572 41.9383 65.4685 42.1853 65.3857 42.4736C65.2823 42.8236 65.2823 43.153 65.365 43.4824C65.4478 43.8118 65.6133 44.1 65.841 44.3265C66.0686 44.553 66.3582 44.7177 66.71 44.8C67.0618 44.8824 67.3928 44.8824 67.7032 44.8ZM69.3172 37.9853L69.8759 38.0677L69.5241 40.7441L65.9238 40.2706L66.2548 37.6559L66.8135 37.7177L66.5652 39.653L67.4963 39.7765L67.7239 38.0471L68.2826 38.1089L68.055 39.8383L69.0482 39.9618L69.3172 37.9853ZM70 33.4559L66.379 33.3941L66.3583 34.053L68.7999 34.0941L66.3169 36.05V36.6059L69.9379 36.6677L69.9586 36.0088L67.517 35.9677L70 34.0118V33.4559ZM68.924 29.1119L69.4827 29.0501L69.8759 32.0972L69.4206 32.1589L66.5652 30.3883L66.8342 32.4472L66.2755 32.5089L65.9031 29.5648L66.3583 29.503L69.2137 31.2736L68.924 29.1119ZM65.5513 27.9795L65.6961 28.6383L69.2344 27.856L69.0896 27.1971L65.5513 27.9795ZM64.2891 23.7588L67.7239 22.6265L67.8894 23.1412L66.1927 25.7971L68.5309 25.0353L68.7378 25.6735L65.303 26.8059L65.1374 26.2912L66.8342 23.6353L64.496 24.3971L64.2891 23.7588ZM63.5235 22.05L63.7924 22.6677L67.1031 21.2059L66.8341 20.5883L63.5235 22.05ZM60.4197 16.7383L63.4614 14.7618L63.8338 15.3177L62.5303 16.1618L63.5441 17.7265L64.8477 16.8824L65.2202 17.4383L62.1785 19.4148L61.806 18.8589L63.0682 18.0559L62.0543 16.4912L60.7921 17.2942L60.4197 16.7383ZM60.5852 12.9295L60.8956 11.6736L60.4197 11.1177L60.0679 12.5177C59.8403 12.3942 59.592 12.353 59.3644 12.3736C59.1368 12.3942 58.9092 12.4971 58.7023 12.6824C58.5161 12.8677 58.3712 13.053 58.3091 13.2795C58.2471 13.506 58.2471 13.7324 58.3298 13.9795C58.3919 14.2266 58.5368 14.4736 58.7437 14.7001L59.7162 15.8324L62.4682 13.4854L62.0336 12.9707L61.2267 13.6501L60.6887 13.0324L60.5852 12.9295ZM59.1782 14.3295C58.992 14.1236 58.8885 13.8971 58.8885 13.7119C58.8885 13.5266 58.9713 13.3413 59.1368 13.1971C59.323 13.0324 59.5093 12.9707 59.6955 13.0119C59.8817 13.0324 60.0886 13.156 60.2749 13.3824L60.7921 13.9795L59.6955 14.9266L59.1782 14.3295Z" fill="#00CBA6"/>
</svg>
