<svg width="87" height="90" viewBox="0 0 87 90" fill="none" xmlns="http://www.w3.org/2000/svg">
  <path fill-rule="evenodd" clip-rule="evenodd" d="M25.2313 1.10593L25.2313 1.10593C26.5332 1.38378 27.8367 1.66195 29.0697 2.12331C37.6581 5.32324 43.0051 14.0417 42.1415 23.2452C41.2957 32.2417 34.399 39.7595 25.4794 41.3979C13.975 43.5095 3.15679 35.7788 1.38825 24.1738C-0.32114 12.9475 7.95964 2.11739 19.1919 0.875277C19.3432 0.859356 19.4918 0.81665 19.6394 0.774196C19.7112 0.753562 19.7828 0.732987 19.8544 0.715576H23.4861C24.0632 0.856642 24.6471 0.981251 25.2313 1.10593ZM39.6277 21.2933C39.6632 11.4333 31.6841 3.35951 21.8536 3.31219C11.9048 3.26487 3.80151 11.2736 3.77785 21.1809C3.75419 31.041 11.7274 39.0911 21.5697 39.1502C31.5421 39.2094 39.5922 31.248 39.6277 21.2933ZM44.7618 87.4508C44.7559 88.2375 44.9511 88.8527 45.6313 89.2785V89.2844H46.4948C47.1928 88.8763 47.388 88.2612 47.3821 87.4686C47.3606 84.6812 47.3641 81.8938 47.3676 79.1064C47.3689 78.061 47.3702 77.0156 47.3702 75.9701C47.3762 74.8286 47.4767 74.7221 48.6005 74.7221H63.3817C64.4701 74.7221 64.6061 74.8581 64.6061 75.982L64.6085 77.398C64.6143 80.6997 64.6201 84.0013 64.5943 87.303C64.5883 88.0956 64.7303 88.7639 65.3573 89.2785H66.3924C66.4775 89.1101 66.5841 88.9423 66.6905 88.7746C66.9242 88.4065 67.1572 88.0395 67.1613 87.6697C67.2264 83.6358 67.2323 79.6019 67.1613 75.5679C67.1495 74.8108 66.9011 73.823 66.3865 73.3735C65.4342 72.5454 65.3632 71.6227 65.4283 70.5462C65.444 70.1797 65.4388 69.8158 65.4335 69.4511C65.4309 69.2684 65.4283 69.0855 65.4283 68.9019V68.8647C65.4282 66.701 65.4282 66.6502 67.4925 65.9445C70.3671 64.9626 72.739 63.336 74.4188 60.7749C75.3207 59.3984 76.2229 58.0222 77.125 56.6461L77.1428 56.6189C80.0569 52.1738 82.9703 47.7298 85.87 43.2788C87.0588 41.4511 86.7927 39.3395 85.2726 38.0382C83.7406 36.7251 81.6527 36.7843 80.0024 38.2098C77.525 40.3459 75.0501 42.4844 72.5761 44.6223L72.5585 44.6375L72.5481 44.6465L72.5264 44.6652C71.2012 45.8103 69.8762 46.9552 68.5513 48.0994C68.3886 48.2394 68.2211 48.3721 68.0549 48.5037L68.0548 48.5038C67.9612 48.578 67.8681 48.6518 67.7765 48.7264C65.446 45.97 63.0209 45.763 60.2942 48.0166C59.5659 48.6174 58.8379 49.2186 58.1099 49.8197L58.1097 49.8198L58.1095 49.82L58.1094 49.8201L58.1092 49.8202C55.5265 51.9528 52.9443 54.0849 50.3513 56.2027C47.3939 58.6219 45.9034 61.7094 45.9329 65.5363C45.9507 67.7603 45.9507 69.9784 45.9211 72.1965C45.9152 72.5395 45.8146 72.9536 45.6076 73.2138C45.0339 73.9532 44.7736 74.7635 44.7736 75.6921L44.776 77.1633C44.7819 80.5932 44.7877 84.0198 44.7618 87.4508ZM62.8398 71.0402C62.8387 71.3814 62.8376 71.7251 62.8376 72.0723V72.0782H48.5236C48.5236 71.5743 48.5214 71.0756 48.5191 70.5801V70.5797C48.5141 69.476 48.5091 68.3889 48.5296 67.299C48.5333 67.0933 48.536 66.8873 48.5388 66.681V66.6805C48.5531 65.5933 48.5676 64.4994 48.7366 63.4307C49.056 61.4196 50.1147 59.7812 51.6763 58.4859C54.4248 56.203 57.1842 53.9346 59.9432 51.6666L59.9441 51.6658L59.9451 51.665L59.9461 51.6642L59.9484 51.6623C60.7263 51.0228 61.5041 50.3834 62.2816 49.7437C63.3107 48.8979 64.4405 48.9097 65.2212 49.7437C66.0138 50.5955 65.9192 51.7666 64.961 52.7366C64.2445 53.4599 63.5222 54.1812 62.7996 54.9028C62.2576 55.4441 61.7155 55.9855 61.1755 56.528C60.4361 57.2733 60.3592 57.9772 60.933 58.5687C61.5067 59.1601 62.2402 59.1069 62.9736 58.3794C63.2883 58.0675 63.6043 57.7573 63.9202 57.4471L63.9209 57.4464L63.9217 57.4457L63.9224 57.445L63.9225 57.4449L63.9227 57.4447L63.9228 57.4445L63.923 57.4444C64.9422 56.4438 65.9605 55.4441 66.9306 54.3928C67.2676 54.0245 67.5137 53.5731 67.7601 53.1212C67.8857 52.8909 68.0113 52.6605 68.1491 52.4409C68.2244 52.3191 68.2954 52.1917 68.3665 52.064L68.3665 52.0639C68.5579 51.7204 68.7501 51.3752 69.0304 51.1337C71.6264 48.8691 74.2315 46.6183 76.8373 44.367L76.838 44.3664L76.8386 44.3658L76.8393 44.3653L76.8399 44.3647L76.8404 44.3643L76.8408 44.3639L76.8412 44.3636C78.4198 42.9997 79.9986 41.6356 81.5758 40.2681C82.114 39.8009 82.6641 39.4933 83.368 39.8718C84.0778 40.2563 84.2197 41.0666 83.6874 41.8888C82.7483 43.3408 81.7977 44.7899 80.8476 46.2382C80.4393 46.8607 80.0311 47.483 79.6239 48.1053C78.908 49.1999 78.1899 50.2929 77.4717 51.3858L77.4702 51.3881L77.4697 51.3889C75.8331 53.8799 74.1963 56.371 72.5852 58.8821C71.213 61.0292 69.3912 62.5494 66.972 63.3774C66.0498 63.6909 65.1388 64.0403 64.228 64.3897L64.2275 64.3899L64.2271 64.3901L64.227 64.3901C63.6602 64.6075 63.0934 64.8249 62.5241 65.0336C61.9267 65.2524 61.5304 65.6132 61.5186 66.2816C61.5067 66.9027 61.8202 67.2871 62.3821 67.5415C62.5714 67.6243 62.8198 67.8727 62.8198 68.0502C62.8464 69.0367 62.8431 70.0266 62.8398 71.0395V71.0402ZM19.9017 87.4094C19.8958 88.1843 20.0792 88.8172 20.718 89.2785H21.7176C22.3445 88.7639 22.4865 88.0956 22.4806 87.303C22.4591 84.5584 22.4626 81.8139 22.4661 79.0694C22.4674 78.0403 22.4688 77.0111 22.4688 75.982C22.4688 74.8581 22.5989 74.7221 23.6931 74.7221H38.4743C39.5981 74.7221 39.7046 74.8286 39.7046 75.9701L39.707 77.4078C39.7128 80.7614 39.7187 84.115 39.6928 87.4686C39.6869 88.2671 39.8821 88.8763 40.58 89.2844H41.4436C41.9759 88.8941 42.3071 88.4327 42.3071 87.7111C42.3008 86.2693 42.3027 84.8275 42.3046 83.3857C42.3081 80.764 42.3115 78.1423 42.2657 75.5206C42.2577 75.0268 42.048 74.5384 41.8383 74.05C41.739 73.8188 41.6398 73.5876 41.5619 73.3558C41.5183 73.2231 41.4625 73.0904 41.4067 72.9576C41.2883 72.6758 41.1696 72.3931 41.1656 72.1077C41.1466 70.9962 41.1488 69.8835 41.151 68.7706C41.1536 67.4614 41.1561 66.152 41.1242 64.8443C41.0532 61.6562 39.7578 58.9945 37.4451 56.8238C36.6703 56.0903 35.8777 56.0194 35.3217 56.6049C34.7539 57.2023 34.8663 57.9535 35.6648 58.6929C37.0134 59.9468 38.1135 61.4374 38.291 63.2473C38.4963 65.305 38.5443 67.3805 38.5927 69.4738C38.6126 70.335 38.6326 71.1991 38.6636 72.0663H24.2491C24.2491 71.7597 24.2485 71.4554 24.2479 71.1531V71.1529V71.1528V71.1526V71.1524V71.1523V71.1522V71.1521V71.1521C24.2459 70.1016 24.2439 69.0741 24.2669 68.0502C24.2728 67.8845 24.468 67.6361 24.6336 67.5711C25.2783 67.3167 25.6214 66.8849 25.5681 66.187C25.5208 65.5127 25.0654 65.2051 24.4857 64.9922C23.9084 64.7818 23.3339 64.5632 22.7596 64.3446L22.7594 64.3445L22.7593 64.3445L22.7592 64.3445C21.8802 64.0099 21.0018 63.6756 20.1146 63.3715C17.731 62.5553 15.921 61.0647 14.5547 58.9472C12.6588 56.0073 10.7393 53.0852 8.81919 50.1619L8.81911 50.1618L8.81902 50.1617L8.81878 50.1613L8.81854 50.161L8.81763 50.1596C8.01858 48.9431 7.21942 47.7265 6.42178 46.5083C6.13939 46.0757 5.85609 45.6436 5.57276 45.2114C4.82945 44.0776 4.08592 42.9435 3.35789 41.8001C2.83147 40.9779 3.09172 40.1203 3.89614 39.8009C4.57044 39.5347 5.04954 39.8718 5.52864 40.2859C9.58031 43.7934 13.6379 47.3009 17.7014 50.7966C18.3165 51.3289 18.8252 51.8553 19.0618 52.7071C19.2333 53.334 19.7124 53.9255 20.1738 54.4164C21.1232 55.4235 22.1092 56.3973 23.0944 57.3703L23.0946 57.3705L23.0958 57.3717C23.4236 57.6955 23.7513 58.0191 24.0776 58.3439C24.8347 59.0951 25.5208 59.1779 26.1182 58.616C26.7393 58.0304 26.6683 57.2851 25.8994 56.5103C25.4986 56.1076 25.0954 55.7068 24.6921 55.3058C23.8277 54.4463 22.9627 53.5863 22.1198 52.7071C21.7945 52.3699 21.5105 51.9145 21.3982 51.4708C21.1793 50.6014 21.5401 49.8798 22.2913 49.3947C23.0011 48.9334 23.9238 49.028 24.6986 49.655C25.8749 50.6115 27.0434 51.5758 28.2119 52.54C29.0882 53.2632 29.9646 53.9864 30.8442 54.7063C31.6427 55.3569 32.3702 55.3569 32.8966 54.7181C33.3816 54.1266 33.2693 53.3636 32.5417 52.7603C32.1935 52.4703 31.8455 52.1798 31.4973 51.8892L31.4965 51.8885L31.4958 51.8879L31.4956 51.8878C29.7213 50.4069 27.9442 48.9237 26.13 47.4902C24.1249 45.9109 21.4218 46.248 19.7834 48.194C19.6899 48.307 19.5938 48.4175 19.4867 48.5406L19.4863 48.541L19.4862 48.5411L19.4859 48.5415L19.4858 48.5415C19.4306 48.605 19.3725 48.6718 19.3102 48.7441L19.2384 48.684L19.2378 48.6836C18.9424 48.4366 18.6802 48.2173 18.423 47.9929C14.6493 44.7338 10.8757 41.4748 7.1079 38.2098C6.21476 37.4408 5.20924 37.0031 4.02627 37.1274C0.980125 37.4527 -0.486756 40.6526 1.22855 43.2847C3.89276 47.3768 6.57163 51.463 9.25071 55.5495L9.25134 55.5505L9.25289 55.5528C10.3797 57.2716 11.5066 58.9905 12.6324 60.7098C14.1466 63.0225 16.199 64.6728 18.8015 65.6369C18.991 65.7067 19.1811 65.7748 19.3711 65.8428L19.3729 65.8434L19.3748 65.8441L19.3752 65.8442L19.3752 65.8443C19.9728 66.0582 20.5689 66.2716 21.1379 66.536C21.3804 66.6483 21.6407 67.0151 21.6466 67.2694C21.6939 68.8546 21.6821 70.4398 21.6584 72.0249C21.6525 72.2438 21.5342 72.5454 21.3627 72.6696C20.2507 73.48 19.9017 74.592 19.9017 75.911C19.9254 79.7438 19.9254 83.5766 19.9017 87.4094ZM68.9849 1.10947C68.4041 0.983733 67.8236 0.858047 67.25 0.715576H63.6183C63.5474 0.732367 63.4771 0.751513 63.407 0.770599L63.407 0.770602C63.2549 0.812024 63.1038 0.853166 62.9499 0.869362C51.416 2.18837 43.1884 13.1604 45.1285 24.6234C47.1455 36.4057 58.6558 43.9827 70.2903 41.1613C73.2773 40.4337 75.9626 39.0852 78.3404 37.1392C79.0738 36.5359 79.2158 35.7906 78.7544 35.1873C78.2694 34.5485 77.5005 34.5307 76.702 35.14C76.6458 35.1843 76.5896 35.2301 76.5335 35.2759C76.4772 35.3218 76.421 35.3677 76.3648 35.412C70.5446 39.8955 62.6246 40.4042 56.3076 36.6897C50.0083 32.987 46.5895 25.8477 47.6601 18.6198C49.1684 8.42262 58.8805 1.63238 69.0363 3.673C79.0265 5.68404 85.3909 15.9226 82.6759 25.8004C82.3163 27.112 81.7025 28.354 81.0898 29.5935C80.846 30.0868 80.6024 30.5797 80.3751 31.0765C80.032 31.8336 80.1207 32.5256 80.7181 32.916C81.3392 33.3241 82.0963 33.1348 82.5872 32.4428C82.6471 32.3573 82.7007 32.2687 82.7549 32.1792C82.7664 32.1604 82.7778 32.1415 82.7894 32.1226C82.7988 32.1071 82.8083 32.0916 82.8179 32.0761C89.6259 21.1987 84.758 6.64225 72.7449 2.11739C71.5377 1.66216 70.2607 1.38569 68.9849 1.10947ZM72.8463 22.4743C72.452 22.0518 72.0639 21.6358 71.683 21.2312C72.2033 20.6823 72.738 20.1161 73.2821 19.5399C74.0856 18.689 74.9096 17.8164 75.7378 16.9459C76.7434 15.8872 76.767 14.8047 75.7674 13.7519C75.2049 13.1584 74.6292 12.5716 74.0551 11.9864C73.8625 11.7901 73.67 11.5939 73.4784 11.3978C71.9997 9.88358 71.0947 9.87767 69.5568 11.3741C68.8141 12.0977 68.0713 12.8229 67.2826 13.5931C66.6142 14.2458 65.9127 14.9308 65.1503 15.6742C64.691 15.1744 64.2399 14.6769 63.7921 14.1832L63.7917 14.1827C62.8035 13.093 61.8318 12.0216 60.8265 10.9837C59.8387 9.96639 58.7149 10.0137 57.7153 11.0015C56.8519 11.8531 56.0121 12.7225 55.1723 13.5918L55.1722 13.5919L55.1719 13.5922C53.9594 14.8402 53.989 15.8457 55.2015 17.0879C56.1074 18.0213 56.9975 18.9731 57.9261 19.966L57.9266 19.9666C58.3923 20.4646 58.8677 20.9729 59.3596 21.4944C59.3463 21.5029 59.3243 21.5151 59.2959 21.5308C59.1859 21.5919 58.9801 21.7059 58.8155 21.8611C57.526 23.0973 56.2425 24.3395 54.9827 25.6052C54.0954 26.4984 54.0126 27.5867 54.8111 28.4621C55.7989 29.5445 56.8281 30.5974 57.8868 31.6147C58.7327 32.4251 59.7914 32.3955 60.6905 31.6147C60.8844 31.4436 61.0685 31.2604 61.2522 31.0774L61.2523 31.0774C61.3544 30.9757 61.4564 30.8741 61.56 30.7748C62.2255 30.1308 62.8895 29.4852 63.5887 28.8054L63.5899 28.8042C64.2324 28.1794 64.9047 27.5257 65.6353 26.8178C66.0734 27.2917 66.5034 27.7623 66.9296 28.2287C67.913 29.305 68.8758 30.3589 69.8703 31.3781C70.9764 32.5197 72.0588 32.4901 73.1708 31.3781C73.8688 30.6852 74.5538 29.9793 75.2407 29.2715L75.2411 29.271L75.59 28.9116C76.8321 27.634 76.8025 26.6285 75.5604 25.345C74.6358 24.3919 73.7281 23.4192 72.8507 22.479L72.8502 22.4784L72.8463 22.4743ZM61.2223 27.493L61.2273 27.4881C61.9883 26.7482 62.7433 26.014 63.5 25.2799C65.3809 23.4463 65.4519 23.4522 67.3447 25.3095C68.7169 26.6581 70.0892 28.0007 71.349 29.231C71.9483 28.6758 72.5082 28.16 72.9749 27.73L73.4192 27.3205C72.8531 26.716 72.2893 26.1129 71.7264 25.5109L71.7262 25.5106C70.7307 24.4459 69.738 23.3842 68.7406 22.3225C68.019 21.5536 68.013 20.897 68.7406 20.1518C68.8732 20.0164 69.0097 19.8861 69.1459 19.7562L69.1462 19.7559C69.3014 19.6079 69.4561 19.4603 69.6041 19.3059C70.3085 18.5697 71.0094 17.8335 71.705 17.1028C72.3004 16.4775 72.8919 15.8562 73.4784 15.2424C73.1267 14.8875 72.7509 14.5102 72.3165 14.0741L72.3162 14.0738C71.9761 13.7324 71.6001 13.3549 71.1716 12.9238C70.748 13.3832 70.3253 13.844 69.9024 14.305C68.7899 15.5177 67.6759 16.7321 66.5403 17.9278C65.7122 18.7913 65.1148 18.7558 64.2512 17.9278C63.8508 17.543 63.4529 17.1557 63.056 16.7692L63.0553 16.7685C62.8544 16.573 62.6538 16.3776 62.4531 16.1829C62.0912 15.8312 61.7299 15.4795 61.377 15.1358C60.709 14.4854 60.0707 13.864 59.5134 13.326C59.064 13.7205 58.6358 14.0937 58.2452 14.4342L58.2451 14.4343C57.9212 14.7166 57.6232 14.9764 57.3604 15.2069C57.7529 15.6273 58.1417 16.0487 58.5297 16.4691C59.4574 17.4745 60.3801 18.4744 61.3352 19.442C63.0505 21.175 63.0505 21.3111 61.3589 23.0205C60.3828 24.0049 59.4366 25.0224 58.4757 26.0557L58.4756 26.0557C58.0856 26.4751 57.6932 26.8971 57.2954 27.3205C57.2599 27.2732 57.3131 27.3738 57.3959 27.4507C57.7792 27.834 58.1649 28.215 58.572 28.6172L58.5726 28.6177C58.8124 28.8546 59.0596 29.0988 59.3182 29.3552V29.3434C59.9599 28.7205 60.5931 28.1047 61.2223 27.493ZM21.3955 19.1137C20.7713 19.7038 20.1418 20.2989 19.5054 20.9029L19.5113 20.897C19.3891 20.7846 19.2497 20.6539 19.0998 20.5134C18.887 20.314 18.653 20.0948 18.4171 19.8797C17.2519 18.815 16.1872 18.8446 15.1048 19.9625C14.3832 20.7077 13.6675 21.4648 12.9636 22.2219C11.9226 23.3399 11.9344 24.4045 13.0346 25.4692C14.3654 26.7527 15.7022 28.0244 17.0508 29.2784C18.7483 30.8517 20.9723 30.828 22.6285 29.2133C23.2785 28.5818 23.9067 27.9321 24.5359 27.2814C24.7082 27.1031 24.8806 26.9248 25.0535 26.7468C25.8402 25.9483 25.9289 25.2385 25.3375 24.6411C24.7401 24.0378 24.0125 24.1265 23.2377 24.9073C22.9335 25.2159 22.6311 25.5253 22.3287 25.8346C21.8254 26.3494 21.3225 26.8639 20.8126 27.3738C20.2329 27.9475 19.5705 28.0481 18.9613 27.498C18.0335 26.6576 17.1263 25.7939 16.1902 24.9026C15.7953 24.5267 15.3953 24.1458 14.9865 23.7598C15.4123 23.3682 15.8161 22.9986 16.2199 22.629C16.4443 22.4236 16.6688 22.2182 16.897 22.009C17.0792 22.1785 17.2667 22.3549 17.4565 22.5335C17.6178 22.6853 17.7809 22.8387 17.9439 22.9909C19.3043 24.2626 20.2625 24.2389 21.5756 22.9022L28.1056 16.2302C28.2521 16.0837 28.4041 15.9429 28.5252 15.8307C28.5802 15.7798 28.6287 15.7348 28.6675 15.6979C28.7925 15.8139 28.9152 15.9279 29.0372 16.0412C29.5615 16.5283 30.0725 17.0029 30.6963 17.5788C30.3728 17.8791 30.0509 18.1745 29.7312 18.4679C28.9932 19.1452 28.2672 19.8115 27.5614 20.5007C26.8221 21.2223 26.7925 21.9617 27.3958 22.5354C27.9518 23.0619 28.7148 22.9968 29.3773 22.3284C30.4952 21.2046 31.6072 20.0749 32.7014 18.9274C33.6715 17.9159 33.6656 16.798 32.6837 15.7984C31.897 14.9999 31.0867 14.2132 30.2704 13.4443C29.2531 12.492 28.1411 12.5157 27.1415 13.5094C26.8053 13.8402 26.4776 14.1809 26.1501 14.5213C25.7575 14.9294 25.3653 15.3372 24.9589 15.7274C23.7827 16.8569 22.5989 17.976 21.3955 19.1137Z" fill="#00CBA6"/>
</svg>