<svg width="88" height="74" viewBox="0 0 88 74" fill="none" xmlns="http://www.w3.org/2000/svg">
  <g id="Vision">
    <path id="Vector" d="M35.7078 23.0842C35.8437 23.0842 38.0187 22.742 38.8343 22.5139C39.514 22.3998 40.0578 21.8295 39.9218 21.2592C39.7859 20.6889 39.1062 20.2326 38.4265 20.3467C37.475 20.4608 36.3875 20.6889 35.4359 20.917C34.7562 21.0311 34.2125 21.7154 34.4843 22.2858C34.6203 22.742 35.164 23.0842 35.7078 23.0842Z" fill="#00CBA6"/>
    <path id="Vector_2" d="M85.7328 36.0875C84.7812 35.5172 63.3031 19.8906 44 19.8906C43.1844 19.8906 42.6406 20.3469 42.6406 21.0312C42.6406 21.7156 43.1844 22.1719 44 22.1719C59.7687 22.1719 77.8484 33.6922 82.6063 37C77.8484 40.3078 59.7687 51.8281 44 51.8281C28.2312 51.8281 10.1516 40.3078 5.39375 37C8.92812 34.6047 19.3953 27.875 30.95 24.3391C31.6297 24.1109 32.0375 23.4266 31.7656 22.8563C31.4937 22.2859 30.6781 21.9437 29.9984 22.1719C15.4531 26.6203 2.81094 35.7453 2.26719 36.0875C1.99531 36.3156 1.85938 36.6578 1.85938 37C1.85938 37.3422 1.99531 37.6844 2.26719 37.9125C3.21875 38.4828 24.6969 54.1094 44 54.1094C63.3031 54.1094 84.7812 38.4828 85.7328 37.9125C86.0047 37.6844 86.1406 37.3422 86.1406 37C86.1406 36.6578 86.0047 36.3156 85.7328 36.0875Z" fill="#00CBA6"/>
    <path id="Vector_3" d="M44 49.5469C44.8156 49.5469 45.3594 49.0906 45.3594 48.4062C45.3594 47.7219 44.8156 47.2656 44 47.2656C37.2031 47.2656 31.7656 42.7031 31.7656 37C31.7656 31.2969 37.2031 26.7344 44 26.7344C50.7969 26.7344 56.2344 31.2969 56.2344 37C56.2344 40.8781 53.6516 44.4141 49.4375 46.2391C48.7578 46.4672 48.4859 47.1516 48.7578 47.7219C49.0297 48.2922 49.8453 48.5203 50.525 48.2922C55.8266 46.125 58.9531 41.7906 58.9531 37C58.9531 30.0422 52.2922 24.4531 44 24.4531C35.7078 24.4531 29.0469 30.0422 29.0469 37C29.0469 43.9578 35.7078 49.5469 44 49.5469ZM44 8.48438C44.8156 8.48438 45.3594 8.02812 45.3594 7.34375V2.78125C45.3594 2.09687 44.8156 1.64062 44 1.64062C43.1844 1.64062 42.6406 2.09687 42.6406 2.78125V7.34375C42.6406 8.02812 43.1844 8.48438 44 8.48438ZM18.3078 14.6437C18.5797 15.1 19.3953 15.5563 20.075 15.1C20.7547 14.7578 21.0266 14.1875 20.6188 13.6172L17.9 9.05469C17.6281 8.48438 16.8125 8.25625 16.1328 8.59844C15.4531 8.82656 15.1813 9.51094 15.5891 10.0812L18.3078 14.6437ZM67.925 15.2141C68.6047 15.5562 69.5563 15.1 69.6922 14.7578L72.4109 10.1953C72.6828 9.625 72.4109 8.94062 71.8672 8.7125C71.1875 8.48438 70.3719 8.7125 70.1 9.16875L67.3813 13.7313C66.9734 14.1875 67.2453 14.8719 67.925 15.2141ZM44 65.5156C43.1844 65.5156 42.6406 65.9719 42.6406 66.6562V71.2188C42.6406 71.9031 43.1844 72.3594 44 72.3594C44.8156 72.3594 45.3594 71.9031 45.3594 71.2188V66.6562C45.3594 65.9719 44.8156 65.5156 44 65.5156ZM20.075 58.7859C19.3953 58.5578 18.5797 58.7859 18.3078 59.2422L15.5891 63.8047C15.3172 64.375 15.5891 65.0594 16.1328 65.2875C16.8125 65.6297 17.7641 65.1734 17.9 64.8313L20.6188 60.2688C21.0266 59.8125 20.7547 59.1281 20.075 58.7859ZM69.6922 59.3562C69.4203 58.7859 68.6047 58.5578 67.925 58.9C67.2453 59.1281 66.9734 59.8125 67.3813 60.3828L70.1 64.9453C70.3719 65.4016 71.0516 65.8578 71.8672 65.4016C72.5469 65.1734 72.8188 64.4891 72.4109 63.9187L69.6922 59.3562Z" fill="#00CBA6"/>
    <path id="Vector_4" d="M50.7969 37C50.7969 37.6844 51.3406 38.1406 52.1562 38.1406C52.9719 38.1406 53.5156 37.6844 53.5156 37C53.5156 32.5516 49.3016 29.0156 44 29.0156C43.1844 29.0156 42.6406 29.4719 42.6406 30.1562C42.6406 30.8406 43.1844 31.2969 44 31.2969C47.8063 31.2969 50.7969 33.8063 50.7969 37ZM37.475 38.825C37.2031 38.2547 36.3875 37.9125 35.7078 38.1406C35.0281 38.3687 34.6203 39.0531 34.8922 39.6234C36.3875 42.8172 40.0578 44.8703 43.8641 44.8703C44.6797 44.8703 45.2234 44.4141 45.2234 43.7297C45.2234 43.0453 44.6797 42.5891 43.8641 42.5891C41.1453 42.7031 38.5625 41.1062 37.475 38.825ZM20.7547 32.0953C20.3469 31.525 19.5312 31.4109 18.8516 31.7531C14.6375 33.9203 10.6953 36.0875 10.6953 36.0875C10.2875 36.2016 10.0156 36.6578 10.0156 37C10.0156 37.3422 10.2875 37.6844 10.5594 37.9125L14.6375 40.1937C14.9094 40.3078 15.8609 40.65 16.5406 39.8516C16.9484 39.2812 16.8125 38.5969 16.1328 38.2547L13.8219 37C15.3172 36.2016 17.7641 34.9469 20.2109 33.5781C20.8906 33.35 21.0266 32.5516 20.7547 32.0953Z" fill="#00CBA6"/>
  </g>
</svg>
